<?xml version="1.0" encoding="utf-8"?>
<!-- Generator: Adobe Illustrator 18.0.0, SVG Export Plug-In . SVG Version: 6.00 Build 0)  -->
<!DOCTYPE svg PUBLIC "-//W3C//DTD SVG 1.1//EN" "http://www.w3.org/Graphics/SVG/1.1/DTD/svg11.dtd">
<svg version="1.1" id="Layer_1" xmlns="http://www.w3.org/2000/svg" xmlns:xlink="http://www.w3.org/1999/xlink" x="0px" y="0px"
	 viewBox="0 0 373 229" enable-background="new 0 0 373 229" xml:space="preserve">
<g id="icon1" display="none">
	<g display="inline">
		<g>
			<path fill="none" stroke="#CC6242" stroke-width="5" stroke-miterlimit="10" d="M44.5,135.6C35.2,124.2,25.1,114,24.8,101
				c-0.7-25.2,18.4-34,32-34c14,0,32.4,10.1,31.7,34c-0.3,9.9-6.5,19.7-19.3,34.6c-2.7,3.1,2.2,14.2-1.5,16.6
				c-5.8,3.8-18.2,3.3-21.9,0C42.4,149.2,46.7,138.2,44.5,135.6z"/>
			<line fill="none" stroke="#CC6242" stroke-width="5" stroke-miterlimit="10" x1="45" y1="136.7" x2="68.1" y2="136.6"/>
			<path fill="none" stroke="#CC6242" stroke-width="5" stroke-miterlimit="10" d="M52.1,154.8c0,0,1,2.7,4.5,2.7
				c3.4,0,4.9-2.7,4.9-2.7H52.1z"/>
			<path fill="none" stroke="#CC6242" stroke-width="5" stroke-miterlimit="10" d="M49.6,136.7l-8.5-35c-0.1-0.4,0.5-0.7,0.7-0.3
				c2.8,4.1,7.5,8.8,9.6,8.9c2.7,0.1,15.8-8.9,5.1-9.1c-10.7-0.2,1.2,9.1,5.1,9.1c5,0,7.2-6.5,8.6-9c0.3-0.5,1-0.2,0.9,0.3
				l-7.3,35.2H49.6z"/>
			<path fill="none" stroke="#CC6242" stroke-width="5" stroke-miterlimit="10" d="M49,145.8h-3.8c-0.1,0-0.2-0.1-0.2-0.2v0
				c0-0.1,0.1-0.2,0.2-0.2H49c0.1,0,0.2,0.1,0.2,0.2v0C49.1,145.7,49.1,145.8,49,145.8z"/>
			<path fill="none" stroke="#CC6242" stroke-width="5" stroke-miterlimit="10" d="M68,145.7H56.8c-0.1,0-0.1,0-0.1-0.1v0
				c0-0.1,0-0.1,0.1-0.1H68c0.1,0,0.1,0,0.1,0.1L68,145.7C68.1,145.6,68.1,145.7,68,145.7z"/>
		</g>
		<path fill="none" stroke="#CC6242" stroke-width="5" stroke-miterlimit="10" d="M28.6,126.7l-7.3,7.6c-0.1,0.1-0.3,0.1-0.4,0l0,0
			c-0.1-0.1-0.1-0.3,0-0.4l7.3-7.6c0.1-0.1,0.3-0.1,0.4,0l0,0C28.7,126.4,28.7,126.6,28.6,126.7z"/>
		<path fill="none" stroke="#CC6242" stroke-width="5" stroke-miterlimit="10" d="M56.5,58.7V48.2c0-0.2,0.1-0.3,0.3-0.3h0
			c0.2,0,0.3,0.1,0.3,0.3v10.6c0,0.2-0.1,0.3-0.3,0.3h0C56.6,59,56.5,58.9,56.5,58.7z"/>
		<path fill="none" stroke="#CC6242" stroke-width="5" stroke-miterlimit="10" d="M28.6,71l-7.4-7.5c-0.1-0.1-0.1-0.3,0-0.4l0,0
			c0.1-0.1,0.3-0.1,0.4,0l7.4,7.5c0.1,0.1,0.1,0.3,0,0.4l0,0C28.9,71.1,28.7,71.1,28.6,71z"/>
		<path fill="none" stroke="#CC6242" stroke-width="5" stroke-miterlimit="10" d="M17,98.8H6.4c-0.2,0-0.3-0.1-0.3-0.3v0
			c0-0.2,0.1-0.3,0.3-0.3H17c0.2,0,0.3,0.1,0.3,0.3v0C17.3,98.7,17.1,98.8,17,98.8z"/>
	</g>
	<path display="inline" fill="none" stroke="#CC6242" stroke-width="5" stroke-miterlimit="10" d="M278.1,214.2h-88.5
		c-1.5,0-2.8-1.2-2.8-2.8v-63.3c0-1.5,1.2-2.8,2.8-2.8h88.5c1.5,0,2.8,1.2,2.8,2.8v63.3C280.9,213,279.7,214.2,278.1,214.2z"/>
	
		<line display="inline" fill="none" stroke="#CC6242" stroke-width="5" stroke-linecap="round" stroke-miterlimit="10" x1="186.9" y1="145.8" x2="280.3" y2="213.1"/>
	
		<line display="inline" fill="none" stroke="#CC6242" stroke-width="5" stroke-linecap="round" stroke-miterlimit="10" x1="279.5" y1="145.8" x2="187.5" y2="213.1"/>
	<path display="inline" fill="none" stroke="#CC6242" stroke-width="5" stroke-linecap="round" stroke-miterlimit="10" d="
		M268,126.5h-53.8c-1.5,0-2.7-1.2-2.7-2.7v-11.3c0-1.5,1.2-2.7,2.7-2.7H268c1.5,0,2.7,1.2,2.7,2.7v11.3
		C270.7,125.3,269.5,126.5,268,126.5z"/>
	<path display="inline" fill="none" stroke="#CC6242" stroke-width="5" stroke-linecap="round" stroke-miterlimit="10" d="
		M143.1,83.3c-23.7-55.1,72-46.7,72-46.7"/>
	<path display="inline" fill="none" stroke="#CC6242" stroke-width="5" stroke-linecap="round" stroke-miterlimit="10" d="
		M135.6,88.8l9.4,3.5c1.6,0.6,3.3-0.3,3.8-1.9l3-9.2"/>
	<path display="inline" fill="none" stroke="#CC6242" stroke-width="5" stroke-linecap="round" stroke-miterlimit="10" d="
		M217.3,45.5l6.8-7.3c1.1-1.2,1-3.2-0.2-4.2l-7.4-6.3"/>
	
		<circle display="inline" fill="none" stroke="#CC6242" stroke-width="5" stroke-linecap="round" stroke-miterlimit="10" cx="272.4" cy="44.4" r="33.7"/>
	
		<circle display="inline" fill="none" stroke="#CC6242" stroke-width="5" stroke-linecap="round" stroke-miterlimit="10" cx="272.4" cy="40" r="13.4"/>
	<path display="inline" fill="none" stroke="#CC6242" stroke-width="5" stroke-linecap="round" stroke-miterlimit="10" d="
		M272.4,78.1c8.9,0,17-3.5,23-9.1c-4.4-8.1-13.1-13.5-23-13.5c-10,0-18.6,5.5-23,13.5C255.4,74.7,263.5,78.1,272.4,78.1z"/>
	<path display="inline" fill="none" stroke="#CC6242" stroke-width="5" stroke-miterlimit="10" d="M272.4,87.5
		c-17.3,0-32.2-10.2-39.1-24.9c-0.2-0.3-0.5-0.5-0.8-0.5h-150c-2.5,0-3.4,3.2-1.3,4.5c9.8,6,17.5,16.9,17,33.8
		c-0.3,9.7-5.4,19.2-15.9,32.3c-1.3,1.6-0.1,4,1.9,4H279c1.3,0,2.4-1.1,2.4-2.4V87.7c0-0.6-0.5-1-1.1-0.9
		C277.8,87.3,275.1,87.5,272.4,87.5z"/>
	<g display="inline">
		
			<path fill="none" stroke="#CC6242" stroke-width="5" stroke-linecap="round" stroke-miterlimit="10" stroke-dasharray="10.06,8.048" d="
			M176.2,145.4l-97.5,0c-1.4,0-2.6,1.2-2.4,2.6c0.5,5.4,0.5,12.1-2.2,13.7c-5.5,3.3-13.5,4.6-19.8,4.5c-1.2,0-2.2,0.9-2.2,2.2
			l0,43.4c0,1.3,1.1,2.4,2.3,2.4h121.8c1.3,0,2.3-1.1,2.3-2.4v-64.1C178.6,146.4,177.5,145.4,176.2,145.4z"/>
	</g>
	<path display="inline" fill="none" stroke="#CC6242" stroke-width="5" stroke-miterlimit="10" d="M356.6,138.2H300
		c-0.7,0-1.2,0.6-1.2,1.2v10.4c0,7.8-3.2,11.6-6.2,13.5c-0.8,0.5-0.5,1.7,0.5,1.7h52.3c0,0,15.4,0,15.4-16.2v-9.6
		c0-0.8-0.7-1.3-1.4-1.2C357.6,138.2,356.6,138.2,356.6,138.2z"/>
	<path display="inline" fill="none" stroke="#CC6242" stroke-width="5" stroke-miterlimit="10" d="M356.6,173.6H300
		c-0.7,0-1.2,0.6-1.2,1.2v10.4c0,7.8-3.2,11.6-6.2,13.5c-0.8,0.5-0.5,1.7,0.5,1.7h52.3c0,0,15.4,0,15.4-16.2v-9.6
		c0-0.8-0.7-1.3-1.4-1.2C357.6,173.6,356.6,173.6,356.6,173.6z"/>
	<circle display="inline" fill="none" stroke="#CC6242" stroke-width="5" stroke-miterlimit="10" cx="328.8" cy="78.1" r="3.6"/>
	
		<line display="inline" fill="none" stroke="#CC6242" stroke-width="5" stroke-linecap="round" stroke-linejoin="bevel" stroke-miterlimit="10" x1="310" y1="93.1" x2="347.3" y2="93.1"/>
	
		<line display="inline" fill="none" stroke="#CC6242" stroke-width="5" stroke-linecap="round" stroke-linejoin="bevel" stroke-miterlimit="10" x1="310.1" y1="102.6" x2="337.6" y2="102.6"/>
	
		<line display="inline" fill="none" stroke="#CC6242" stroke-width="5" stroke-linecap="round" stroke-linejoin="bevel" stroke-miterlimit="10" x1="310" y1="112.1" x2="347.3" y2="112.1"/>
	<path display="inline" fill="none" stroke="#CC6242" stroke-width="5" stroke-miterlimit="10" d="M308.1,68.1
		c-2.5,3.8-5.6,7.1-9.1,9.9v36.4c0,7.8-3.2,11.6-6.2,13.5c-0.8,0.5-0.5,1.7,0.5,1.7h52.3c0,0,15.4,0,15.4-16.2V68.1H308.1z"/>
	
		<line display="inline" fill="none" stroke="#CC6242" stroke-width="5" stroke-linecap="round" stroke-linejoin="bevel" stroke-miterlimit="10" x1="106.4" y1="109.8" x2="195" y2="109.8"/>
	
		<line display="inline" fill="none" stroke="#CC6242" stroke-width="5" stroke-linecap="round" stroke-linejoin="bevel" stroke-miterlimit="10" x1="106.4" y1="118.9" x2="143.7" y2="118.9"/>
	
		<line display="inline" fill="none" stroke="#CC6242" stroke-width="5" stroke-linecap="round" stroke-linejoin="bevel" stroke-miterlimit="10" x1="171.4" y1="74.1" x2="221.9" y2="74.1"/>
</g>
<g id="icon2">
	<g>
		<path fill="none" stroke="#CC6342" stroke-width="5" stroke-miterlimit="10" d="M345,110.8l-1.6,1.3l-0.3,0.2
			c-2.4,2-6.1,0.1-5.8-3l0-0.3l0.2-2.1c0.1-0.8-0.5-1.5-1.3-1.6l-2.1-0.2h0l-2.1-0.2c-0.8-0.1-1.5,0.5-1.6,1.3l-0.2,2.1l0,0.3
			c-0.3,3.1-4.2,4.4-6.2,1.9l-0.2-0.3l-1.3-1.6c-0.5-0.6-1.4-0.7-2.1-0.2l-1.6,1.3l0,0l-1.6,1.3c-0.6,0.5-0.7,1.4-0.2,2.1l1.3,1.6
			l0.2,0.3c2,2.4,0.1,6.1-3,5.8l-0.3,0l-2.1-0.2c-0.8-0.1-1.5,0.5-1.6,1.3l-0.2,2.1v0l-0.2,2.1c-0.1,0.8,0.5,1.5,1.3,1.6l2.1,0.2
			l0.3,0c3.1,0.3,4.4,4.2,1.9,6.2l-0.3,0.2l-1.6,1.3c-0.6,0.5-0.7,1.4-0.2,2.1l1.3,1.6v0l1.3,1.6c0.5,0.6,1.4,0.7,2.1,0.2l1.6-1.3
			l0.3-0.2c2.4-2,6.1-0.1,5.8,3l0,0.3L327,145c-0.1,0.8,0.5,1.5,1.3,1.6l2.1,0.2l0,0l2.1,0.2c0.8,0.1,1.5-0.5,1.6-1.3l0.2-2.1l0-0.3
			c0.3-3.1,4.2-4.4,6.2-1.9l0.2,0.3l1.3,1.6c0.5,0.6,1.4,0.7,2.1,0.2l1.6-1.3l0,0l1.6-1.3c0.6-0.5,0.7-1.4,0.2-2.1l-1.3-1.6
			l-0.2-0.3c-2-2.4-0.1-6.1,3-5.8l0.3,0l2.1,0.2c0.8,0.1,1.5-0.5,1.6-1.3l0.2-2.1v0l0.2-2.1c0.1-0.8-0.5-1.5-1.3-1.6l-2.1-0.2
			l-0.3,0c-3.1-0.3-4.4-4.2-1.9-6.2l0.3-0.2l1.6-1.3c0.6-0.5,0.7-1.4,0.2-2.1l-1.3-1.6v0L347,111C346.5,110.3,345.6,110.3,345,110.8
			z M336.6,131.2c-2.9,2.4-7.2,2-9.6-0.9c-2.4-2.9-2-7.2,0.9-9.6c2.9-2.4,7.2-2,9.6,0.9C339.9,124.5,339.5,128.8,336.6,131.2z"/>
		<path fill="none" stroke="#CC6342" stroke-width="5" stroke-miterlimit="10" d="M261.1,202.4l-2.1-1.7l-0.3-0.3
			c-3.2-2.7-1.6-7.9,2.6-8.3l0.5,0l2.7-0.3c1.1-0.1,1.9-1.1,1.8-2.1l-0.3-2.7v0l-0.3-2.7c-0.1-1.1-1.1-1.9-2.1-1.8l-2.7,0.3l-0.5,0
			c-4.2,0.4-6.7-4.4-4-7.7l0.3-0.3l1.7-2.1c0.7-0.8,0.6-2.1-0.3-2.7l-2.1-1.7l0,0l-2.1-1.7c-0.8-0.7-2.1-0.6-2.7,0.3l-1.7,2.1
			l-0.3,0.3c-2.7,3.2-7.9,1.6-8.3-2.6l0-0.5l-0.3-2.7c-0.1-1.1-1.1-1.9-2.1-1.8l-2.7,0.3h0l-2.7,0.3c-1.1,0.1-1.9,1.1-1.8,2.1
			l0.3,2.7l0,0.5c0.4,4.2-4.4,6.7-7.7,4l-0.3-0.3l-2.1-1.7c-0.8-0.7-2.1-0.6-2.7,0.3l-1.7,2.1l0,0l-1.7,2.1
			c-0.7,0.8-0.6,2.1,0.3,2.7l2.1,1.7l0.3,0.3c3.2,2.7,1.6,7.9-2.6,8.3l-0.5,0l-2.7,0.3c-1.1,0.1-1.9,1.1-1.8,2.1l0.3,2.7v0l0.3,2.7
			c0.1,1.1,1.1,1.9,2.1,1.8l2.7-0.3l0.5,0c4.2-0.4,6.7,4.4,4,7.7l-0.3,0.3l-1.7,2.1c-0.7,0.8-0.6,2.1,0.3,2.7l2.1,1.7l0,0l2.1,1.7
			c0.8,0.7,2.1,0.6,2.7-0.3l1.7-2.1l0.3-0.3c2.7-3.2,7.9-1.6,8.3,2.6l0,0.5l0.3,2.7c0.1,1.1,1.1,1.9,2.1,1.8l2.7-0.3h0l2.7-0.3
			c1.1-0.1,1.9-1.1,1.8-2.1l-0.3-2.7l0-0.5c-0.4-4.2,4.4-6.7,7.7-4l0.3,0.3l2.1,1.7c0.8,0.7,2.1,0.6,2.7-0.3l1.7-2.1v0l1.7-2.1
			C262,204.3,261.9,203.1,261.1,202.4z M231.2,198c-4.7-3.9-5.3-10.8-1.4-15.5c3.9-4.7,10.8-5.3,15.5-1.4c4.7,3.9,5.3,10.8,1.4,15.5
			S235.9,201.9,231.2,198z"/>
		<g>
			<path fill="none" stroke="#CC6342" stroke-width="5" stroke-miterlimit="10" d="M342.5,185.7l-3.4-0.7l-0.6-0.1
				c-5.1-1.1-6.4-7.8-2-10.7l0.5-0.3l2.9-1.9c1.1-0.7,1.5-2.2,0.7-3.4l-1.9-2.9v0l-1.9-2.9c-0.7-1.1-2.2-1.5-3.4-0.7l-2.9,1.9
				l-0.5,0.3c-4.4,2.8-10-1.1-8.9-6.2l0.1-0.6l0.7-3.4c0.3-1.3-0.6-2.6-1.9-2.9l-3.4-0.7h0l-3.4-0.7c-1.3-0.3-2.6,0.6-2.9,1.9
				l-0.7,3.4l-0.1,0.6c-1.1,5.1-7.8,6.4-10.7,2l-0.3-0.5l-1.9-2.9c-0.7-1.1-2.2-1.5-3.4-0.7l-2.9,1.9l0,0l-2.9,1.9
				c-1.1,0.7-1.5,2.2-0.7,3.4l1.9,2.9l0.3,0.5c2.8,4.4-1.1,10-6.2,8.9l-0.6-0.1l-3.4-0.7c-1.3-0.3-2.6,0.6-2.9,1.9l-0.7,3.4v0
				l-0.7,3.4c-0.3,1.3,0.6,2.6,1.9,2.9l3.4,0.7l0.6,0.1c5.1,1.1,6.4,7.8,2,10.7l-0.5,0.3l-2.9,1.9c-1.1,0.7-1.5,2.2-0.7,3.4l1.9,2.9
				l0,0l1.9,2.9c0.7,1.1,2.2,1.5,3.4,0.7l2.9-1.9l0.5-0.3c4.4-2.8,10,1.1,8.9,6.2l-0.1,0.6l-0.7,3.4c-0.3,1.3,0.6,2.6,1.9,2.9
				l3.4,0.7l0,0l3.4,0.7c1.3,0.3,2.6-0.6,2.9-1.9l0.7-3.4l0.1-0.6c1.1-5.1,7.8-6.4,10.7-2l0.3,0.5l1.9,2.9c0.7,1.1,2.2,1.5,3.4,0.7
				l2.9-1.9l0,0l2.9-1.9c1.1-0.7,1.5-2.2,0.7-3.4l-1.9-2.9l-0.3-0.5c-2.8-4.4,1.1-10,6.2-8.9l0.6,0.1l3.4,0.7
				c1.3,0.3,2.6-0.6,2.9-1.9l0.7-3.4l0,0l0.7-3.4C344.7,187.3,343.8,186,342.5,185.7z M306.2,200.4c-8.7-1.9-14.2-10.4-12.4-19.1
				c1.9-8.7,10.4-14.2,19.1-12.4c8.7,1.9,14.2,10.4,12.4,19.1S314.9,202.2,306.2,200.4z"/>
			<circle fill="none" stroke="#CC6342" stroke-width="5" stroke-miterlimit="10" cx="309.6" cy="184.6" r="4.4"/>
		</g>
	</g>
	<circle fill="none" stroke="#CC6342" stroke-width="5" stroke-miterlimit="10" cx="102.5" cy="16.3" r="5.1"/>
	<circle fill="none" stroke="#CC6342" stroke-width="5" stroke-miterlimit="10" cx="84.1" cy="16.3" r="5.1"/>
	<circle fill="none" stroke="#CC6342" stroke-width="5" stroke-miterlimit="10" cx="65.6" cy="16.3" r="5.1"/>
	<path fill="none" stroke="#CC6242" stroke-width="5" stroke-miterlimit="10" d="M47.3,96.1L20.4,68.7c-1.3-1.3-1.3-3.4,0-4.7
		l27.4-26.9c1.3-1.3,3.4-1.3,4.7,0l26.9,27.4c1.3,1.3,1.3,3.4,0,4.7L52,96.1C50.7,97.4,48.6,97.4,47.3,96.1z"/>
	<path fill="none" stroke="#CC6242" stroke-width="5" stroke-miterlimit="10" d="M47.5,106.1L28,86.3c-1.2-1.2-3.2-1.2-4.4,0
		l-3.3,3.3c-1.2,1.2-1.2,3.2,0,4.4l27.2,27.7c1.2,1.2,3.2,1.2,4.4,0l27.7-27.2c1.2-1.2,1.2-3.2,0-4.4l-3.4-3.5
		c-1.2-1.2-3.2-1.2-4.4,0l-19.9,19.6C50.6,107.3,48.7,107.3,47.5,106.1z"/>
	<path fill="none" stroke="#CC6242" stroke-width="5" stroke-miterlimit="10" d="M47.5,131.4L28,111.6c-1.2-1.2-3.2-1.2-4.4,0
		l-3.3,3.3c-1.2,1.2-1.2,3.2,0,4.4L47.5,147c1.2,1.2,3.2,1.2,4.4,0l27.7-27.2c1.2-1.2,1.2-3.2,0-4.4l-3.4-3.5
		c-1.2-1.2-3.2-1.2-4.4,0l-19.9,19.6C50.6,132.7,48.7,132.7,47.5,131.4z"/>
	<path fill="none" stroke="#CC6342" stroke-width="5" stroke-miterlimit="10" d="M60.5,29.5v5c0,0.3,0.1,0.5,0.3,0.7l24.1,24.5
		c3.9,4,3.8,10.4-0.1,14.3l-4.8,4.8c-0.4,0.4-0.4,1.1,0.1,1.5c0.5,0.3,0.9,0.7,1.3,1.1l3.4,3.5c1.3,1.3,2.1,2.8,2.6,4.5
		c0.1,0.4,0.5,0.7,0.9,0.7h220.4c0.5,0,1-0.4,1-1V29.5c0-0.5-0.4-1-1-1H61.5C60.9,28.6,60.5,29,60.5,29.5z"/>
	<path fill="none" stroke="#CC6342" stroke-width="5" stroke-miterlimit="10" d="M304.5,121.7c0.3-3.1,2.1-5.6,4.7-6.9
		c0.2-0.1,0.4-0.3,0.4-0.6l0-15.1c0-0.4-0.3-0.6-0.6-0.6L86.1,98.4c-3.2,0-7.1,3-5.6,7.4c0.9,2.8,5.9,4.2,7,9.8
		c0.6,3.5-0.5,6.8-2.9,9.2c0,0-24.1,21.7-24.1,23.6c0,2.2,0,29.2,0,29.2c0,0.4,0.3,0.6,0.6,0.6l146.1,0.1c0.4,0,0.7-0.4,0.6-0.8
		c-0.8-2.8-0.2-5.9,1.7-8.2l3.5-4.2c1.7-2.1,4.3-3.3,7-3.3c1.1,0,2.3,0.2,3.3,0.6c0.3,0.1,0.7-0.1,0.8-0.4c0.4-1.6,1.2-3.1,2.4-4.4
		c1.6-1.6,3.7-2.5,6-2.7l5.1-0.5c4.1-0.4,7.7,1.9,9.2,5.4c0.1,0.3,0.6,0.5,0.9,0.3c2-1.3,4.5-1.7,7-1.1c1.4,0.3,2.7,1.1,3.8,2l4,3.4
		c3.1,2.6,4,6.8,2.7,10.3c-0.1,0.4,0.1,0.8,0.4,0.8c0.7,0.2,1.3,0.4,2,0.7c0.4,0.2,0.8,0,0.9-0.4l0.7-3.1c0.9-4.2,4.4-8.7,10.6-8.1
		c0.5,0.1,0.9-0.5,0.7-0.9c-2.1-4.3-0.7-9.6,3.4-12.2l5.6-3.6c1-0.6,2-1.1,3.1-1.4c3.8-0.9,7.5,0.5,9.7,3.4c0.3,0.4,0.9,0.3,1-0.1
		c0.7-1.5,1.9-4.3,5.7-5.7c0.4-0.1,0.6-0.6,0.3-1c-1.5-1.9-2.2-6.5-1.5-8.9c0.1-0.3,0-0.5-0.3-0.7c-2.4-1.7-3.8-4.6-3.5-7.7
		L304.5,121.7z"/>
	
		<line fill="none" stroke="#CC6242" stroke-width="6" stroke-linecap="round" stroke-miterlimit="10" x1="98.6" y1="113.5" x2="142.3" y2="113.5"/>
	
		<line fill="none" stroke="#CC6242" stroke-width="6" stroke-linecap="round" stroke-miterlimit="10" x1="98.9" y1="125.9" x2="175" y2="125.9"/>
	
		<line fill="none" stroke="#CC6242" stroke-width="6" stroke-linecap="round" stroke-miterlimit="10" x1="98.9" y1="138.4" x2="142.6" y2="138.4"/>
	
		<line fill="none" stroke="#CC6242" stroke-width="6" stroke-linecap="round" stroke-miterlimit="10" x1="151.6" y1="138.4" x2="224.4" y2="138.5"/>
	
		<line fill="none" stroke="#CC6242" stroke-width="6" stroke-linecap="round" stroke-miterlimit="10" x1="98.6" y1="151.5" x2="171.4" y2="151.5"/>
	
		<line fill="none" stroke="#CC6242" stroke-width="6" stroke-linecap="round" stroke-miterlimit="10" x1="181.9" y1="151.5" x2="208.6" y2="151.5"/>
	
		<line fill="none" stroke="#CC6242" stroke-width="6" stroke-linecap="round" stroke-miterlimit="10" x1="98.6" y1="164" x2="160.2" y2="164"/>
	<path fill="none" stroke="#CC6242" stroke-width="6" stroke-linecap="round" stroke-miterlimit="10" d="M263.4,69.8"/>
	<path fill="none" stroke="#CC6242" stroke-width="6" stroke-linecap="round" stroke-miterlimit="10" d="M273.3,113.1
		c-5.3,6-13,9.8-21.7,9.8c-15.9,0-28.8-12.9-28.8-28.8s12.9-28.8,28.8-28.8c3.9,0,7.6,0.8,11.1,2.2"/>
	
		<line fill="none" stroke="#CC6242" stroke-width="6" stroke-linecap="round" stroke-miterlimit="10" x1="267" y1="58.2" x2="273.3" y2="69.8"/>
	
		<line fill="none" stroke="#CC6242" stroke-width="6" stroke-linecap="round" stroke-miterlimit="10" x1="262.1" y1="76.9" x2="273.7" y2="70.7"/>
	<line fill="none" stroke="#CC6242" stroke-width="6" stroke-miterlimit="10" x1="167.9" y1="30.4" x2="167.9" y2="92"/>
	<line fill="none" stroke="#CC6242" stroke-width="6" stroke-miterlimit="10" x1="308.7" y1="45.3" x2="169.9" y2="45.3"/>
	<path fill="none" stroke="#CC6242" stroke-width="5" stroke-miterlimit="10" d="M148.7,79.3h-16.3c-4,0-7.3-3.3-7.3-7.3v0
		c0-4,3.3-7.3,7.3-7.3h16.3c4,0,7.3,3.3,7.3,7.3v0C156,76,152.7,79.3,148.7,79.3z"/>
</g>
</svg>
