<?xml version="1.0" encoding="utf-8"?>
<!-- Generator: Adobe Illustrator 18.0.0, SVG Export Plug-In . SVG Version: 6.00 Build 0)  -->
<!DOCTYPE svg PUBLIC "-//W3C//DTD SVG 1.1//EN" "http://www.w3.org/Graphics/SVG/1.1/DTD/svg11.dtd">
<svg version="1.1" id="Layer_1" xmlns="http://www.w3.org/2000/svg" xmlns:xlink="http://www.w3.org/1999/xlink" x="0px" y="0px"
	 viewBox="0 0 373 229" enable-background="new 0 0 373 229" xml:space="preserve">
<g id="icon1" display="none">
	<g display="inline">
		<g>
			<path fill="none" stroke="#CC6242" stroke-width="5" stroke-miterlimit="10" d="M44.5,135.6C35.2,124.2,25.1,114,24.8,101
				c-0.7-25.2,18.4-34,32-34c14,0,32.4,10.1,31.7,34c-0.3,9.9-6.5,19.7-19.3,34.6c-2.7,3.1,2.2,14.2-1.5,16.6
				c-5.8,3.8-18.2,3.3-21.9,0C42.4,149.2,46.7,138.2,44.5,135.6z"/>
			<line fill="none" stroke="#CC6242" stroke-width="5" stroke-miterlimit="10" x1="45" y1="136.7" x2="68.1" y2="136.6"/>
			<path fill="none" stroke="#CC6242" stroke-width="5" stroke-miterlimit="10" d="M52.1,154.8c0,0,1,2.7,4.5,2.7
				c3.4,0,4.9-2.7,4.9-2.7H52.1z"/>
			<path fill="none" stroke="#CC6242" stroke-width="5" stroke-miterlimit="10" d="M49.6,136.7l-8.5-35c-0.1-0.4,0.5-0.7,0.7-0.3
				c2.8,4.1,7.5,8.8,9.6,8.9c2.7,0.1,15.8-8.9,5.1-9.1c-10.7-0.2,1.2,9.1,5.1,9.1c5,0,7.2-6.5,8.6-9c0.3-0.5,1-0.2,0.9,0.3
				l-7.3,35.2H49.6z"/>
			<path fill="none" stroke="#CC6242" stroke-width="5" stroke-miterlimit="10" d="M49,145.8h-3.8c-0.1,0-0.2-0.1-0.2-0.2v0
				c0-0.1,0.1-0.2,0.2-0.2H49c0.1,0,0.2,0.1,0.2,0.2v0C49.1,145.7,49.1,145.8,49,145.8z"/>
			<path fill="none" stroke="#CC6242" stroke-width="5" stroke-miterlimit="10" d="M68,145.7H56.8c-0.1,0-0.1,0-0.1-0.1v0
				c0-0.1,0-0.1,0.1-0.1H68c0.1,0,0.1,0,0.1,0.1L68,145.7C68.1,145.6,68.1,145.7,68,145.7z"/>
		</g>
		<path fill="none" stroke="#CC6242" stroke-width="5" stroke-miterlimit="10" d="M28.6,126.7l-7.3,7.6c-0.1,0.1-0.3,0.1-0.4,0l0,0
			c-0.1-0.1-0.1-0.3,0-0.4l7.3-7.6c0.1-0.1,0.3-0.1,0.4,0l0,0C28.7,126.4,28.7,126.6,28.6,126.7z"/>
		<path fill="none" stroke="#CC6242" stroke-width="5" stroke-miterlimit="10" d="M56.5,58.7V48.2c0-0.2,0.1-0.3,0.3-0.3h0
			c0.2,0,0.3,0.1,0.3,0.3v10.6c0,0.2-0.1,0.3-0.3,0.3h0C56.6,59,56.5,58.9,56.5,58.7z"/>
		<path fill="none" stroke="#CC6242" stroke-width="5" stroke-miterlimit="10" d="M28.6,71l-7.4-7.5c-0.1-0.1-0.1-0.3,0-0.4l0,0
			c0.1-0.1,0.3-0.1,0.4,0l7.4,7.5c0.1,0.1,0.1,0.3,0,0.4l0,0C28.9,71.1,28.7,71.1,28.6,71z"/>
		<path fill="none" stroke="#CC6242" stroke-width="5" stroke-miterlimit="10" d="M17,98.8H6.4c-0.2,0-0.3-0.1-0.3-0.3v0
			c0-0.2,0.1-0.3,0.3-0.3H17c0.2,0,0.3,0.1,0.3,0.3v0C17.3,98.7,17.1,98.8,17,98.8z"/>
	</g>
	<path display="inline" fill="none" stroke="#CC6242" stroke-width="5" stroke-miterlimit="10" d="M278.1,214.2h-88.5
		c-1.5,0-2.8-1.2-2.8-2.8v-63.3c0-1.5,1.2-2.8,2.8-2.8h88.5c1.5,0,2.8,1.2,2.8,2.8v63.3C280.9,213,279.7,214.2,278.1,214.2z"/>
	
		<line display="inline" fill="none" stroke="#CC6242" stroke-width="5" stroke-linecap="round" stroke-miterlimit="10" x1="186.9" y1="145.8" x2="280.3" y2="213.1"/>
	
		<line display="inline" fill="none" stroke="#CC6242" stroke-width="5" stroke-linecap="round" stroke-miterlimit="10" x1="279.5" y1="145.8" x2="187.5" y2="213.1"/>
	<path display="inline" fill="none" stroke="#CC6242" stroke-width="5" stroke-linecap="round" stroke-miterlimit="10" d="
		M268,126.5h-53.8c-1.5,0-2.7-1.2-2.7-2.7v-11.3c0-1.5,1.2-2.7,2.7-2.7H268c1.5,0,2.7,1.2,2.7,2.7v11.3
		C270.7,125.3,269.5,126.5,268,126.5z"/>
	<path display="inline" fill="none" stroke="#CC6242" stroke-width="5" stroke-linecap="round" stroke-miterlimit="10" d="
		M143.1,83.3c-23.7-55.1,72-46.7,72-46.7"/>
	<path display="inline" fill="none" stroke="#CC6242" stroke-width="5" stroke-linecap="round" stroke-miterlimit="10" d="
		M135.6,88.8l9.4,3.5c1.6,0.6,3.3-0.3,3.8-1.9l3-9.2"/>
	<path display="inline" fill="none" stroke="#CC6242" stroke-width="5" stroke-linecap="round" stroke-miterlimit="10" d="
		M217.3,45.5l6.8-7.3c1.1-1.2,1-3.2-0.2-4.2l-7.4-6.3"/>
	
		<circle display="inline" fill="none" stroke="#CC6242" stroke-width="5" stroke-linecap="round" stroke-miterlimit="10" cx="272.4" cy="44.4" r="33.7"/>
	
		<circle display="inline" fill="none" stroke="#CC6242" stroke-width="5" stroke-linecap="round" stroke-miterlimit="10" cx="272.4" cy="40" r="13.4"/>
	<path display="inline" fill="none" stroke="#CC6242" stroke-width="5" stroke-linecap="round" stroke-miterlimit="10" d="
		M272.4,78.1c8.9,0,17-3.5,23-9.1c-4.4-8.1-13.1-13.5-23-13.5c-10,0-18.6,5.5-23,13.5C255.4,74.7,263.5,78.1,272.4,78.1z"/>
	<path display="inline" fill="none" stroke="#CC6242" stroke-width="5" stroke-miterlimit="10" d="M272.4,87.5
		c-17.3,0-32.2-10.2-39.1-24.9c-0.2-0.3-0.5-0.5-0.8-0.5h-150c-2.5,0-3.4,3.2-1.3,4.5c9.8,6,17.5,16.9,17,33.8
		c-0.3,9.7-5.4,19.2-15.9,32.3c-1.3,1.6-0.1,4,1.9,4H279c1.3,0,2.4-1.1,2.4-2.4V87.7c0-0.6-0.5-1-1.1-0.9
		C277.8,87.3,275.1,87.5,272.4,87.5z"/>
	<g display="inline">
		
			<path fill="none" stroke="#CC6242" stroke-width="5" stroke-linecap="round" stroke-miterlimit="10" stroke-dasharray="10.06,8.048" d="
			M176.2,145.4l-97.5,0c-1.4,0-2.6,1.2-2.4,2.6c0.5,5.4,0.5,12.1-2.2,13.7c-5.5,3.3-13.5,4.6-19.8,4.5c-1.2,0-2.2,0.9-2.2,2.2
			l0,43.4c0,1.3,1.1,2.4,2.3,2.4h121.8c1.3,0,2.3-1.1,2.3-2.4v-64.1C178.6,146.4,177.5,145.4,176.2,145.4z"/>
	</g>
	<path display="inline" fill="none" stroke="#CC6242" stroke-width="5" stroke-miterlimit="10" d="M356.6,138.2H300
		c-0.7,0-1.2,0.6-1.2,1.2v10.4c0,7.8-3.2,11.6-6.2,13.5c-0.8,0.5-0.5,1.7,0.5,1.7h52.3c0,0,15.4,0,15.4-16.2v-9.6
		c0-0.8-0.7-1.3-1.4-1.2C357.6,138.2,356.6,138.2,356.6,138.2z"/>
	<path display="inline" fill="none" stroke="#CC6242" stroke-width="5" stroke-miterlimit="10" d="M356.6,173.6H300
		c-0.7,0-1.2,0.6-1.2,1.2v10.4c0,7.8-3.2,11.6-6.2,13.5c-0.8,0.5-0.5,1.7,0.5,1.7h52.3c0,0,15.4,0,15.4-16.2v-9.6
		c0-0.8-0.7-1.3-1.4-1.2C357.6,173.6,356.6,173.6,356.6,173.6z"/>
	<circle display="inline" fill="none" stroke="#CC6242" stroke-width="5" stroke-miterlimit="10" cx="328.8" cy="78.1" r="3.6"/>
	
		<line display="inline" fill="none" stroke="#CC6242" stroke-width="5" stroke-linecap="round" stroke-linejoin="bevel" stroke-miterlimit="10" x1="310" y1="93.1" x2="347.3" y2="93.1"/>
	
		<line display="inline" fill="none" stroke="#CC6242" stroke-width="5" stroke-linecap="round" stroke-linejoin="bevel" stroke-miterlimit="10" x1="310.1" y1="102.6" x2="337.6" y2="102.6"/>
	
		<line display="inline" fill="none" stroke="#CC6242" stroke-width="5" stroke-linecap="round" stroke-linejoin="bevel" stroke-miterlimit="10" x1="310" y1="112.1" x2="347.3" y2="112.1"/>
	<path display="inline" fill="none" stroke="#CC6242" stroke-width="5" stroke-miterlimit="10" d="M308.1,68.1
		c-2.5,3.8-5.6,7.1-9.1,9.9v36.4c0,7.8-3.2,11.6-6.2,13.5c-0.8,0.5-0.5,1.7,0.5,1.7h52.3c0,0,15.4,0,15.4-16.2V68.1H308.1z"/>
	
		<line display="inline" fill="none" stroke="#CC6242" stroke-width="5" stroke-linecap="round" stroke-linejoin="bevel" stroke-miterlimit="10" x1="106.4" y1="109.8" x2="195" y2="109.8"/>
	
		<line display="inline" fill="none" stroke="#CC6242" stroke-width="5" stroke-linecap="round" stroke-linejoin="bevel" stroke-miterlimit="10" x1="106.4" y1="118.9" x2="143.7" y2="118.9"/>
	
		<line display="inline" fill="none" stroke="#CC6242" stroke-width="5" stroke-linecap="round" stroke-linejoin="bevel" stroke-miterlimit="10" x1="171.4" y1="74.1" x2="221.9" y2="74.1"/>
</g>
<g id="icon2" display="none">
	<g display="inline">
		<path fill="none" stroke="#CC6342" stroke-width="5" stroke-miterlimit="10" d="M345,110.8l-1.6,1.3l-0.3,0.2
			c-2.4,2-6.1,0.1-5.8-3l0-0.3l0.2-2.1c0.1-0.8-0.5-1.5-1.3-1.6l-2.1-0.2h0l-2.1-0.2c-0.8-0.1-1.5,0.5-1.6,1.3l-0.2,2.1l0,0.3
			c-0.3,3.1-4.2,4.4-6.2,1.9l-0.2-0.3l-1.3-1.6c-0.5-0.6-1.4-0.7-2.1-0.2l-1.6,1.3l0,0l-1.6,1.3c-0.6,0.5-0.7,1.4-0.2,2.1l1.3,1.6
			l0.2,0.3c2,2.4,0.1,6.1-3,5.8l-0.3,0l-2.1-0.2c-0.8-0.1-1.5,0.5-1.6,1.3l-0.2,2.1v0l-0.2,2.1c-0.1,0.8,0.5,1.5,1.3,1.6l2.1,0.2
			l0.3,0c3.1,0.3,4.4,4.2,1.9,6.2l-0.3,0.2l-1.6,1.3c-0.6,0.5-0.7,1.4-0.2,2.1l1.3,1.6v0l1.3,1.6c0.5,0.6,1.4,0.7,2.1,0.2l1.6-1.3
			l0.3-0.2c2.4-2,6.1-0.1,5.8,3l0,0.3L327,145c-0.1,0.8,0.5,1.5,1.3,1.6l2.1,0.2l0,0l2.1,0.2c0.8,0.1,1.5-0.5,1.6-1.3l0.2-2.1l0-0.3
			c0.3-3.1,4.2-4.4,6.2-1.9l0.2,0.3l1.3,1.6c0.5,0.6,1.4,0.7,2.1,0.2l1.6-1.3l0,0l1.6-1.3c0.6-0.5,0.7-1.4,0.2-2.1l-1.3-1.6
			l-0.2-0.3c-2-2.4-0.1-6.1,3-5.8l0.3,0l2.1,0.2c0.8,0.1,1.5-0.5,1.6-1.3l0.2-2.1v0l0.2-2.1c0.1-0.8-0.5-1.5-1.3-1.6l-2.1-0.2
			l-0.3,0c-3.1-0.3-4.4-4.2-1.9-6.2l0.3-0.2l1.6-1.3c0.6-0.5,0.7-1.4,0.2-2.1l-1.3-1.6v0L347,111C346.5,110.3,345.6,110.3,345,110.8
			z M336.6,131.2c-2.9,2.4-7.2,2-9.6-0.9c-2.4-2.9-2-7.2,0.9-9.6c2.9-2.4,7.2-2,9.6,0.9C339.9,124.5,339.5,128.8,336.6,131.2z"/>
		<path fill="none" stroke="#CC6342" stroke-width="5" stroke-miterlimit="10" d="M261.1,202.4l-2.1-1.7l-0.3-0.3
			c-3.2-2.7-1.6-7.9,2.6-8.3l0.5,0l2.7-0.3c1.1-0.1,1.9-1.1,1.8-2.1l-0.3-2.7v0l-0.3-2.7c-0.1-1.1-1.1-1.9-2.1-1.8l-2.7,0.3l-0.5,0
			c-4.2,0.4-6.7-4.4-4-7.7l0.3-0.3l1.7-2.1c0.7-0.8,0.6-2.1-0.3-2.7l-2.1-1.7l0,0l-2.1-1.7c-0.8-0.7-2.1-0.6-2.7,0.3l-1.7,2.1
			l-0.3,0.3c-2.7,3.2-7.9,1.6-8.3-2.6l0-0.5l-0.3-2.7c-0.1-1.1-1.1-1.9-2.1-1.8l-2.7,0.3h0l-2.7,0.3c-1.1,0.1-1.9,1.1-1.8,2.1
			l0.3,2.7l0,0.5c0.4,4.2-4.4,6.7-7.7,4l-0.3-0.3l-2.1-1.7c-0.8-0.7-2.1-0.6-2.7,0.3l-1.7,2.1l0,0l-1.7,2.1
			c-0.7,0.8-0.6,2.1,0.3,2.7l2.1,1.7l0.3,0.3c3.2,2.7,1.6,7.9-2.6,8.3l-0.5,0l-2.7,0.3c-1.1,0.1-1.9,1.1-1.8,2.1l0.3,2.7v0l0.3,2.7
			c0.1,1.1,1.1,1.9,2.1,1.8l2.7-0.3l0.5,0c4.2-0.4,6.7,4.4,4,7.7l-0.3,0.3l-1.7,2.1c-0.7,0.8-0.6,2.1,0.3,2.7l2.1,1.7l0,0l2.1,1.7
			c0.8,0.7,2.1,0.6,2.7-0.3l1.7-2.1l0.3-0.3c2.7-3.2,7.9-1.6,8.3,2.6l0,0.5l0.3,2.7c0.1,1.1,1.1,1.9,2.1,1.8l2.7-0.3h0l2.7-0.3
			c1.1-0.1,1.9-1.1,1.8-2.1l-0.3-2.7l0-0.5c-0.4-4.2,4.4-6.7,7.7-4l0.3,0.3l2.1,1.7c0.8,0.7,2.1,0.6,2.7-0.3l1.7-2.1v0l1.7-2.1
			C262,204.3,261.9,203.1,261.1,202.4z M231.2,198c-4.7-3.9-5.3-10.8-1.4-15.5c3.9-4.7,10.8-5.3,15.5-1.4c4.7,3.9,5.3,10.8,1.4,15.5
			S235.9,201.9,231.2,198z"/>
		<g>
			<path fill="none" stroke="#CC6342" stroke-width="5" stroke-miterlimit="10" d="M342.5,185.7l-3.4-0.7l-0.6-0.1
				c-5.1-1.1-6.4-7.8-2-10.7l0.5-0.3l2.9-1.9c1.1-0.7,1.5-2.2,0.7-3.4l-1.9-2.9v0l-1.9-2.9c-0.7-1.1-2.2-1.5-3.4-0.7l-2.9,1.9
				l-0.5,0.3c-4.4,2.8-10-1.1-8.9-6.2l0.1-0.6l0.7-3.4c0.3-1.3-0.6-2.6-1.9-2.9l-3.4-0.7h0l-3.4-0.7c-1.3-0.3-2.6,0.6-2.9,1.9
				l-0.7,3.4l-0.1,0.6c-1.1,5.1-7.8,6.4-10.7,2l-0.3-0.5l-1.9-2.9c-0.7-1.1-2.2-1.5-3.4-0.7l-2.9,1.9l0,0l-2.9,1.9
				c-1.1,0.7-1.5,2.2-0.7,3.4l1.9,2.9l0.3,0.5c2.8,4.4-1.1,10-6.2,8.9l-0.6-0.1l-3.4-0.7c-1.3-0.3-2.6,0.6-2.9,1.9l-0.7,3.4v0
				l-0.7,3.4c-0.3,1.3,0.6,2.6,1.9,2.9l3.4,0.7l0.6,0.1c5.1,1.1,6.4,7.8,2,10.7l-0.5,0.3l-2.9,1.9c-1.1,0.7-1.5,2.2-0.7,3.4l1.9,2.9
				l0,0l1.9,2.9c0.7,1.1,2.2,1.5,3.4,0.7l2.9-1.9l0.5-0.3c4.4-2.8,10,1.1,8.9,6.2l-0.1,0.6l-0.7,3.4c-0.3,1.3,0.6,2.6,1.9,2.9
				l3.4,0.7l0,0l3.4,0.7c1.3,0.3,2.6-0.6,2.9-1.9l0.7-3.4l0.1-0.6c1.1-5.1,7.8-6.4,10.7-2l0.3,0.5l1.9,2.9c0.7,1.1,2.2,1.5,3.4,0.7
				l2.9-1.9l0,0l2.9-1.9c1.1-0.7,1.5-2.2,0.7-3.4l-1.9-2.9l-0.3-0.5c-2.8-4.4,1.1-10,6.2-8.9l0.6,0.1l3.4,0.7
				c1.3,0.3,2.6-0.6,2.9-1.9l0.7-3.4l0,0l0.7-3.4C344.7,187.3,343.8,186,342.5,185.7z M306.2,200.4c-8.7-1.9-14.2-10.4-12.4-19.1
				c1.9-8.7,10.4-14.2,19.1-12.4c8.7,1.9,14.2,10.4,12.4,19.1S314.9,202.2,306.2,200.4z"/>
			<circle fill="none" stroke="#CC6342" stroke-width="5" stroke-miterlimit="10" cx="309.6" cy="184.6" r="4.4"/>
		</g>
	</g>
	<circle display="inline" fill="none" stroke="#CC6342" stroke-width="5" stroke-miterlimit="10" cx="102.5" cy="16.3" r="5.1"/>
	<circle display="inline" fill="none" stroke="#CC6342" stroke-width="5" stroke-miterlimit="10" cx="84.1" cy="16.3" r="5.1"/>
	<circle display="inline" fill="none" stroke="#CC6342" stroke-width="5" stroke-miterlimit="10" cx="65.6" cy="16.3" r="5.1"/>
	<path display="inline" fill="none" stroke="#CC6242" stroke-width="5" stroke-miterlimit="10" d="M47.3,96.1L20.4,68.7
		c-1.3-1.3-1.3-3.4,0-4.7l27.4-26.9c1.3-1.3,3.4-1.3,4.7,0l26.9,27.4c1.3,1.3,1.3,3.4,0,4.7L52,96.1C50.7,97.4,48.6,97.4,47.3,96.1z
		"/>
	<path display="inline" fill="none" stroke="#CC6242" stroke-width="5" stroke-miterlimit="10" d="M47.5,106.1L28,86.3
		c-1.2-1.2-3.2-1.2-4.4,0l-3.3,3.3c-1.2,1.2-1.2,3.2,0,4.4l27.2,27.7c1.2,1.2,3.2,1.2,4.4,0l27.7-27.2c1.2-1.2,1.2-3.2,0-4.4
		l-3.4-3.5c-1.2-1.2-3.2-1.2-4.4,0l-19.9,19.6C50.6,107.3,48.7,107.3,47.5,106.1z"/>
	<path display="inline" fill="none" stroke="#CC6242" stroke-width="5" stroke-miterlimit="10" d="M47.5,131.4L28,111.6
		c-1.2-1.2-3.2-1.2-4.4,0l-3.3,3.3c-1.2,1.2-1.2,3.2,0,4.4L47.5,147c1.2,1.2,3.2,1.2,4.4,0l27.7-27.2c1.2-1.2,1.2-3.2,0-4.4
		l-3.4-3.5c-1.2-1.2-3.2-1.2-4.4,0l-19.9,19.6C50.6,132.7,48.7,132.7,47.5,131.4z"/>
	<path display="inline" fill="none" stroke="#CC6342" stroke-width="5" stroke-miterlimit="10" d="M60.5,29.5v5
		c0,0.3,0.1,0.5,0.3,0.7l24.1,24.5c3.9,4,3.8,10.4-0.1,14.3l-4.8,4.8c-0.4,0.4-0.4,1.1,0.1,1.5c0.5,0.3,0.9,0.7,1.3,1.1l3.4,3.5
		c1.3,1.3,2.1,2.8,2.6,4.5c0.1,0.4,0.5,0.7,0.9,0.7h220.4c0.5,0,1-0.4,1-1V29.5c0-0.5-0.4-1-1-1H61.5C60.9,28.6,60.5,29,60.5,29.5z"
		/>
	<path display="inline" fill="none" stroke="#CC6342" stroke-width="5" stroke-miterlimit="10" d="M304.5,121.7
		c0.3-3.1,2.1-5.6,4.7-6.9c0.2-0.1,0.4-0.3,0.4-0.6l0-15.1c0-0.4-0.3-0.6-0.6-0.6L86.1,98.4c-3.2,0-7.1,3-5.6,7.4
		c0.9,2.8,5.9,4.2,7,9.8c0.6,3.5-0.5,6.8-2.9,9.2c0,0-24.1,21.7-24.1,23.6c0,2.2,0,29.2,0,29.2c0,0.4,0.3,0.6,0.6,0.6l146.1,0.1
		c0.4,0,0.7-0.4,0.6-0.8c-0.8-2.8-0.2-5.9,1.7-8.2l3.5-4.2c1.7-2.1,4.3-3.3,7-3.3c1.1,0,2.3,0.2,3.3,0.6c0.3,0.1,0.7-0.1,0.8-0.4
		c0.4-1.6,1.2-3.1,2.4-4.4c1.6-1.6,3.7-2.5,6-2.7l5.1-0.5c4.1-0.4,7.7,1.9,9.2,5.4c0.1,0.3,0.6,0.5,0.9,0.3c2-1.3,4.5-1.7,7-1.1
		c1.4,0.3,2.7,1.1,3.8,2l4,3.4c3.1,2.6,4,6.8,2.7,10.3c-0.1,0.4,0.1,0.8,0.4,0.8c0.7,0.2,1.3,0.4,2,0.7c0.4,0.2,0.8,0,0.9-0.4
		l0.7-3.1c0.9-4.2,4.4-8.7,10.6-8.1c0.5,0.1,0.9-0.5,0.7-0.9c-2.1-4.3-0.7-9.6,3.4-12.2l5.6-3.6c1-0.6,2-1.1,3.1-1.4
		c3.8-0.9,7.5,0.5,9.7,3.4c0.3,0.4,0.9,0.3,1-0.1c0.7-1.5,1.9-4.3,5.7-5.7c0.4-0.1,0.6-0.6,0.3-1c-1.5-1.9-2.2-6.5-1.5-8.9
		c0.1-0.3,0-0.5-0.3-0.7c-2.4-1.7-3.8-4.6-3.5-7.7L304.5,121.7z"/>
	
		<line display="inline" fill="none" stroke="#CC6242" stroke-width="6" stroke-linecap="round" stroke-miterlimit="10" x1="98.6" y1="113.5" x2="142.3" y2="113.5"/>
	
		<line display="inline" fill="none" stroke="#CC6242" stroke-width="6" stroke-linecap="round" stroke-miterlimit="10" x1="98.9" y1="125.9" x2="175" y2="125.9"/>
	
		<line display="inline" fill="none" stroke="#CC6242" stroke-width="6" stroke-linecap="round" stroke-miterlimit="10" x1="98.9" y1="138.4" x2="142.6" y2="138.4"/>
	
		<line display="inline" fill="none" stroke="#CC6242" stroke-width="6" stroke-linecap="round" stroke-miterlimit="10" x1="151.6" y1="138.4" x2="224.4" y2="138.5"/>
	
		<line display="inline" fill="none" stroke="#CC6242" stroke-width="6" stroke-linecap="round" stroke-miterlimit="10" x1="98.6" y1="151.5" x2="171.4" y2="151.5"/>
	
		<line display="inline" fill="none" stroke="#CC6242" stroke-width="6" stroke-linecap="round" stroke-miterlimit="10" x1="181.9" y1="151.5" x2="208.6" y2="151.5"/>
	
		<line display="inline" fill="none" stroke="#CC6242" stroke-width="6" stroke-linecap="round" stroke-miterlimit="10" x1="98.6" y1="164" x2="160.2" y2="164"/>
	<path display="inline" fill="none" stroke="#CC6242" stroke-width="6" stroke-linecap="round" stroke-miterlimit="10" d="
		M263.4,69.8"/>
	<path display="inline" fill="none" stroke="#CC6242" stroke-width="6" stroke-linecap="round" stroke-miterlimit="10" d="
		M273.3,113.1c-5.3,6-13,9.8-21.7,9.8c-15.9,0-28.8-12.9-28.8-28.8s12.9-28.8,28.8-28.8c3.9,0,7.6,0.8,11.1,2.2"/>
	
		<line display="inline" fill="none" stroke="#CC6242" stroke-width="6" stroke-linecap="round" stroke-miterlimit="10" x1="267" y1="58.2" x2="273.3" y2="69.8"/>
	
		<line display="inline" fill="none" stroke="#CC6242" stroke-width="6" stroke-linecap="round" stroke-miterlimit="10" x1="262.1" y1="76.9" x2="273.7" y2="70.7"/>
	
		<line display="inline" fill="none" stroke="#CC6242" stroke-width="6" stroke-miterlimit="10" x1="167.9" y1="30.4" x2="167.9" y2="92"/>
	
		<line display="inline" fill="none" stroke="#CC6242" stroke-width="6" stroke-miterlimit="10" x1="308.7" y1="45.3" x2="169.9" y2="45.3"/>
	<path display="inline" fill="none" stroke="#CC6242" stroke-width="5" stroke-miterlimit="10" d="M148.7,79.3h-16.3
		c-4,0-7.3-3.3-7.3-7.3v0c0-4,3.3-7.3,7.3-7.3h16.3c4,0,7.3,3.3,7.3,7.3v0C156,76,152.7,79.3,148.7,79.3z"/>
</g>
<g id="icon3" display="none">
	<g display="inline">
		<circle fill="none" stroke="#CC6242" stroke-width="5" stroke-miterlimit="10" cx="185.6" cy="120.7" r="38.4"/>
		<path fill="none" stroke="#CC6242" stroke-width="5" stroke-miterlimit="10" d="M185.6,143.9c-12.8,0-23.1-10.4-23.1-23.1
			s10.4-23.1,23.1-23.1"/>
		<path fill="none" stroke="#CC6242" stroke-width="5" stroke-miterlimit="10" d="M185.6,130.6c-5.4,0-9.8-4.4-9.8-9.8
			s4.4-9.8,9.8-9.8"/>
		<circle fill="none" stroke="#CC6242" stroke-width="5" stroke-miterlimit="10" cx="172.9" cy="107" r="3.9"/>
		
			<line fill="none" stroke="#CC6242" stroke-width="5" stroke-linecap="round" stroke-miterlimit="10" x1="180.8" y1="82.1" x2="178.3" y2="67.6"/>
		
			<line fill="none" stroke="#CC6242" stroke-width="5" stroke-linecap="round" stroke-miterlimit="10" x1="167" y1="86" x2="160.2" y2="73"/>
		
			<line fill="none" stroke="#CC6242" stroke-width="5" stroke-linecap="round" stroke-miterlimit="10" x1="155.9" y1="94.8" x2="145.1" y2="84.8"/>
		
			<line fill="none" stroke="#CC6242" stroke-width="5" stroke-linecap="round" stroke-miterlimit="10" x1="180.5" y1="159.6" x2="178" y2="169.9"/>
		
			<line fill="none" stroke="#CC6242" stroke-width="5" stroke-linecap="round" stroke-miterlimit="10" x1="166.8" y1="155" x2="161.8" y2="164.4"/>
	</g>
	
		<line display="inline" fill="none" stroke="#CC6242" stroke-width="5" stroke-linecap="round" stroke-miterlimit="10" x1="185.6" y1="28.7" x2="185.6" y2="195"/>
	
		<line display="inline" fill="none" stroke="#CC6242" stroke-width="5" stroke-linecap="round" stroke-miterlimit="10" x1="185.6" y1="158.7" x2="185.6" y2="82.4"/>
	<path display="inline" fill="none" d="M185.6,120.8"/>
	
		<line display="inline" fill="none" stroke="#CC6242" stroke-width="5" stroke-linecap="round" stroke-miterlimit="10" stroke-dasharray="10,10" x1="186.6" y1="120.8" x2="290.9" y2="120.8"/>
	
		<line display="inline" fill="none" stroke="#CC6242" stroke-width="5" stroke-miterlimit="10" x1="185.6" y1="120.8" x2="278.1" y2="28.3"/>
	
		<line display="inline" fill="none" stroke="#CC6242" stroke-width="5" stroke-miterlimit="10" x1="262.5" y1="197.4" x2="185.6" y2="120.5"/>
	<path display="inline" fill="none" stroke="#CC6242" stroke-width="5" stroke-linecap="round" stroke-miterlimit="10" d="
		M148.9,58.9c10.7-6.6,23.3-10.4,36.8-10.4"/>
	
		<path display="inline" fill="none" stroke="#CC6242" stroke-width="5" stroke-linecap="round" stroke-miterlimit="10" stroke-dasharray="10,10" d="
		M185.6,48.5c38.8,0,70.2,31.4,70.2,70.2s-31.4,70.2-70.2,70.2"/>
	<path display="inline" fill="none" stroke="#CC6242" stroke-width="5" stroke-miterlimit="10" d="M124.9,217.6H23.3
		c-2.2,0-3.9-1.8-3.9-3.9v-58.8c0-2.2,1.8-3.9,3.9-3.9h101.6c2.2,0,3.9,1.8,3.9,3.9v58.8C128.8,215.8,127.1,217.6,124.9,217.6z"/>
	<g display="inline">
		
			<line fill="none" stroke="#CC6242" stroke-width="5" stroke-linecap="round" stroke-miterlimit="10" x1="20.8" y1="204.5" x2="54.8" y2="167.6"/>
		
			<line fill="none" stroke="#CC6242" stroke-width="5" stroke-linecap="round" stroke-miterlimit="10" x1="54.8" y1="167.6" x2="80.1" y2="194.9"/>
		
			<line fill="none" stroke="#CC6242" stroke-width="5" stroke-linecap="round" stroke-miterlimit="10" x1="80.1" y1="194.9" x2="102.5" y2="178.4"/>
		
			<line fill="none" stroke="#CC6242" stroke-width="5" stroke-linecap="round" stroke-miterlimit="10" x1="102.5" y1="178.4" x2="128.8" y2="206.8"/>
	</g>
	
		<circle display="inline" fill="none" stroke="#CC6242" stroke-width="5" stroke-linecap="round" stroke-miterlimit="10" cx="85.5" cy="166" r="7.4"/>
	
		<line display="inline" fill="none" stroke="#CC6242" stroke-width="5" stroke-linecap="round" stroke-miterlimit="10" x1="39.4" y1="89.3" x2="95" y2="89.3"/>
	
		<line display="inline" fill="none" stroke="#CC6242" stroke-width="5" stroke-linecap="round" stroke-miterlimit="10" x1="98.5" y1="80.9" x2="106.3" y2="89.1"/>
	
		<line display="inline" fill="none" stroke="#CC6242" stroke-width="5" stroke-linecap="round" stroke-miterlimit="10" x1="98.7" y1="97.5" x2="106.9" y2="89.7"/>
	
		<line display="inline" fill="none" stroke="#CC6242" stroke-width="5" stroke-linecap="round" stroke-miterlimit="10" x1="101.1" y1="70.1" x2="101.1" y2="22.8"/>
	
		<line display="inline" fill="none" stroke="#CC6242" stroke-width="5" stroke-linecap="round" stroke-miterlimit="10" x1="92.7" y1="19.4" x2="100.8" y2="11.5"/>
	
		<line display="inline" fill="none" stroke="#CC6242" stroke-width="5" stroke-linecap="round" stroke-miterlimit="10" x1="109.3" y1="19.1" x2="101.4" y2="11"/>
	<path display="inline" fill="none" stroke="#CC6242" stroke-width="5" stroke-linecap="round" stroke-miterlimit="10" d="
		M59.1,103.1v36.4c0,1.3,1,2.3,2.3,2.3h75.1c1.3,0,2.3,1,2.3,2.3v50.5c0,1.3,1,2.3,2.3,2.3h187.6c1.3,0,2.3-1,2.3-2.3v-55
		c0-1.3-1.1-2.3-2.4-2.3c-0.7,0-1.5,0.1-2.2,0.1c-26.9,0-48.7-21.8-48.7-48.7s21.8-48.7,48.7-48.7c0.7,0,1.5,0,2.2,0.1
		c1.3,0.1,2.4-1,2.4-2.3v-7.1c0-1.3-1-2.3-2.3-2.3l-211.1-0.2"/>
	<path display="inline" fill="none" stroke="#CC6242" stroke-width="5" stroke-miterlimit="10" d="M346.9,64.2h-35.3
		c-1.1,0-1.9-0.9-1.9-1.9v-5.9c0-1.1,0.9-1.9,1.9-1.9h35.3c1.1,0,1.9,0.9,1.9,1.9v5.9C348.9,63.3,348,64.2,346.9,64.2z"/>
	<path display="inline" fill="none" stroke="#CC6242" stroke-width="5" stroke-miterlimit="10" d="M318.7,65.7
		c0,0,6.7,14.6-7.6,19.3c-0.8,0.3-1.2,1.1-1,1.9c5.3,18.7,16.5,35.5,18.8,38.8c0.2,0.3,0.6,0.3,0.8,0c2.2-3.3,12.9-19.6,18.8-38.8
		c0.2-0.8-0.2-1.6-1-1.9c-14.4-4.8-7.3-19.3-7.3-19.3H318.7z"/>
	
		<line display="inline" fill="none" stroke="#CC6242" stroke-width="5" stroke-linecap="round" stroke-miterlimit="10" x1="329.3" y1="94.5" x2="329.3" y2="121.9"/>
	<circle display="inline" fill="none" stroke="#CC6242" stroke-width="5" stroke-miterlimit="10" cx="329.3" cy="94.5" r="3.9"/>
	
		<line display="inline" fill="none" stroke="#CC6342" stroke-width="5" stroke-linecap="round" stroke-miterlimit="10" x1="61" y1="131.7" x2="117.6" y2="131.7"/>
	
		<line display="inline" fill="none" stroke="#CC6342" stroke-width="5" stroke-linecap="round" stroke-miterlimit="10" x1="319.9" y1="184" x2="319.9" y2="138.8"/>
	<g display="inline">
		<path fill="none" stroke="#CC6141" stroke-width="5" stroke-miterlimit="10" d="M85.2,28.7c1,0,1.8,0.7,1.8,1.6v14.1
			c-1.6,0.1-2.4-0.7-2.6-2.3c-0.2-1.5-0.8-3.4-1.5-4.3c-1-1.3-2.4-2.4-4.1-3.2c-1-0.4-2.7-0.6-5.1-0.6h-2.1c-1,0-1.8,0.7-1.8,1.6
			v35.9c0,2.5,0.1,4,0.4,4.7c0.3,0.6,0.9,1.2,1.7,1.6c0.5,0.3,1.1,0.5,1.8,0.6c1.2,0.2-21.7,0.2-20.4,0c0.8-0.1,1.4-0.3,2-0.6
			c0.7-0.3,1.2-0.9,1.6-1.7c0.3-0.6,0.4-2.1,0.4-4.5V35.7c0-0.9-0.8-1.6-1.8-1.6h-2c-3.5,0-6,0.7-7.6,2.1c-1.9,1.7-3.3,4-4,7
			c-0.2,0.7-0.9,1.3-1.7,1.3l0,0V30.3c0-0.9,0.8-1.6,1.8-1.6H85.2z"/>
	</g>
</g>
<path fill="none" d="M28.8,126.6l-7.2,7.5c-0.1,0.1-0.3,0.1-0.4,0l0,0c-0.1-0.1-0.1-0.3,0-0.4l7.2-7.5c0.1-0.1,0.3-0.1,0.4,0l0,0
	C28.9,126.3,28.9,126.5,28.8,126.6z"/>
<path fill="none" d="M28.8,71.3l-7.3-7.5c-0.1-0.1-0.1-0.3,0-0.4l0,0c0.1-0.1,0.3-0.1,0.4,0l7.3,7.5c0.1,0.1,0.1,0.3,0,0.4l0,0
	C29.1,71.4,28.9,71.4,28.8,71.3z"/>
<path fill="none" d="M17.3,98.9H6.8c-0.2,0-0.3-0.1-0.3-0.3v0c0-0.2,0.1-0.3,0.3-0.3h10.5c0.2,0,0.3,0.1,0.3,0.3v0
	C17.6,98.8,17.4,98.9,17.3,98.9z"/>
<g id="icon1_fill">
	<g>
		<g>
			<path fill="none" stroke="#F3C018" stroke-width="3" stroke-linecap="round" stroke-linejoin="round" d="M34.6,75.8
				c0,0,10.9-8.1,11.7-6.8c0.9,1.5-16.9,13.3-16.9,13.3c0.6,1,25.8-15.1,25.8-14.9c0.8,1.5-27.2,14-26.3,15.6
				c1.8,3.1,26-17.7,27.2-15.7c1.5,2.7-28.7,16.4-28,17.5c1.8,3.2,29.8-18.2,30.3-17.5L26.2,90.3c0.7,1.2,38.1-22,38.1-22
				c1.3,2.2-39.1,29.1-39.1,29.1l46-26.6c2.8,4.9-46.1,29.1-46.1,29.1c2.4,4.1,48.2-27.9,48.2-27.9c2.3,3.9-47.8,33.2-47.8,33.2
				l52.1-30.1c0,0-53,31-50.7,35C28,112,77.6,72.7,81.2,78.8c2,3.5-54.3,31.2-54.2,31.4c3.7,6.4,54.3-31.3,54.3-31.3
				s-56.4,28.5-52.3,35.5c0,0,51.7-37.3,54.9-31.7c0,0-56.5,29.1-53.8,33.8c1.5,2.6,53.5-34.2,54.9-31.7c1,1.7-51.8,36.4-51.6,36.6
				c0,0,51.4-34.8,53.6-31c1.4,2.4-50.3,35.3-50.3,35.3S85.8,92.4,88,96.1l-49.8,31.4c0.2,0.4,47.1-33.8,49.9-28.8l-46.7,32.7
				c2.7,4.6,46.4-26.8,46.4-26.8S40.9,130,42.4,132.7c2.9,5,43-28.9,44.8-25.9c1,1.7-44.6,25.3-43.2,27.8c2.5,4.4,39.7-28.3,42-24.3
				c2.7,4.7-42.1,27.2-40.9,29.3c0.6,1.1,34.3-25.3,36.7-21.2c1.5,2.6-38.4,24.6-37.3,26.6c1.9,3.2,31.2-18,31.2-18l-31.2,22
				c0,0,23.7-16.9,25.1-14.5c1,1.7-22.8,15.7-21,18.8l19.7-11.4c0,0-18.4,10.4-17.4,12c0.7,1.3,16.4-12.4,17.6-10.2
				c0,0-12,10.5-11.9,10.7c0.7,1.2,11.9-7.5,12.2-7l-10.9,7c0,0,10.3-7.5,10.9-6.3c0,0-9.3,6.1-9.3,6.2l9.2-5.3c0,0-6.4,4.2-6.1,4.8
				c0.3,0.5,5.7-3.3,5.7-3.3"/>
			<path fill="none" stroke="#F29671" stroke-width="3" stroke-linecap="round" stroke-linejoin="round" d="M186,147.1
				c0,0,3.2-2.3,3.4-2c0.3,0.5-3.5,5.6-3.5,5.6c0.2,0.4,9.6-5.6,9.7-5.6c0.3,0.5-10,5.4-9.7,6c0.7,1.2,10-6.8,10.5-6
				c0.6,1-10.7,7-10.5,7.4c0.8,1.3,12.6-7.7,12.8-7.4l-12.8,11.7c0.4,0.6,20.2-11.7,20.2-11.7c0.7,1.2-20.2,18.2-20.2,18.2
				l31.5-18.2c2,3.4-31.5,20.7-31.5,20.7c1.8,3,35.8-20.7,35.8-20.7c1.7,3-35.8,26.2-35.8,26.2l45.4-26.2c0,0-47.6,28.3-45.4,32
				c1.1,1.9,51.8-38.3,55.4-32c2,3.5-55.5,31.9-55.4,32.1c3.8,6.6,55.5-32.1,55.5-32.1s-59.8,30-55.5,37.4c0,0,60.9-43.9,64.7-37.4
				c0,0-68,34.4-64.7,40.1c1.9,3.3,67.6-43.2,69.4-40.1c1.3,2.2-69.6,46.6-69.4,46.9c0,0,77.9-52.8,81.3-46.9
				c2.2,3.8-81.3,53.1-81.3,53.1s87.8-59.5,91.6-52.9l-91.6,55.6c0.4,0.7,87.7-63,93.1-53.7l-93.1,59.5c5.4,9.3,93.2-53.8,93.2-53.8
				s-96.3,50.3-93.2,55.7c6,10.4,89.5-60.2,93.2-53.8c2.1,3.6-96,51.4-93,56.6c5.6,9.7,87.9-62.7,93-53.7
				c5.6,9.7-89.1,51.3-86.6,55.7c1.5,2.6,81-59.7,86.6-50c3,5.3-80.2,46.1-77.9,50c4.6,8,77.9-45,77.9-45l-71.1,45
				c0,0,67.2-47.8,71.1-41c2.5,4.3-64.1,33-59.5,41l59.5-34.3c0,0-59.1,29.4-56.2,34.3c2.4,4.1,52.2-39.3,56.2-32.4
				c0,0-50,31.6-49.6,32.4c2.9,5,48.6-30.3,49.6-28.6l-48.4,28.6c0,0,45.4-33.1,48.4-27.9c0,0-47.2,27.6-47,27.9l47-27.1
				c0,0-41.8,23.6-39.8,27.1c2,3.5,39.8-23,39.8-23c0.6,1-36.4,21.9-35.7,23c1.1,2,34.3-23.2,35.7-20.6c2.1,3.6-24.9,20.6-24.9,20.6
				c1.4,2.5,25-14.4,25-14.4s-22.7,13.1-21.9,14.4c1.3,2.3,20.9-14.5,21.9-12.7c0,0-14.1,11.8-13.6,12.7c0,0,13-8.9,13.6-7.8
				c0.6,1.1-7.5,7.8-7.4,7.8c0,0,7.1-4.8,7.4-4.3l-3.5,4.3c0.1,0.2,3.1-2.4,3.4-1.9"/>
			<path fill="none" stroke="#F3C018" stroke-width="3" stroke-linecap="round" stroke-linejoin="round" d="M210.5,111.8
				c0,0,3.1-2.3,3.3-1.9c0.3,0.5-3.5,5.6-3.5,5.6c0.2,0.4,9.6-5.6,9.6-5.6c0.3,0.5-10,5.4-9.6,6c0.7,1.2,10-6.8,10.4-6
				c0.6,1-10.7,6.9-10.4,7.4c0.8,1.3,12.6-7.7,12.8-7.4l-12.8,11.7c0.4,0.6,20.2-11.7,20.2-11.7c0.6,1.1-17.3,16.5-17.3,16.5
				l28.6-16.5c1.5,2.6-24.4,16.5-24.4,16.5c1.4,2.4,28.6-16.5,28.6-16.5c1,1.7-19,16.5-19,16.5l28.6-16.5c0,0-19.6,14.9-18.7,16.5
				c0.6,1,26.8-19.8,28.6-16.5c1,1.8-28.6,16.4-28.5,16.5c2,3.4,28.6-16.5,28.6-16.5s-21,13.7-19.4,16.5c0,0,21.2-15.3,22.6-13
				c0,0-18.8,11.4-17.9,13c0.5,0.8,17.4-11.1,17.9-10.3c0.2,0.3-6,10.3-6,10.3c0,0,5.8-3.9,6-3.5c0.1,0.2-3.5,3.5-3.5,3.5
				s3.2-2.2,3.3-1.9"/>
			<path fill="none" stroke="#F29671" stroke-width="3" stroke-linecap="round" stroke-linejoin="round" d="M260.7,31.9
				c0,0,7.1-5.2,7.5-4.4c0.6,1-10.3,9.5-10.3,9.5c0.4,0.6,16-9.3,16-9.3c0.5,0.9-16.8,8.8-16.2,9.8c1.1,1.9,16-10.9,16.7-9.7
				c0.9,1.6-17.3,10.4-16.9,11.1C258.7,41,275.7,28,276,28.5l-18.2,14.8c0.4,0.7,21.7-12.5,21.7-12.5c0.7,1.2-19.3,17.7-19.3,17.7
				l22.7-13.1c1.3,2.3-21.3,14.7-21.3,14.7c1.1,1.9,21.9-12.7,21.9-12.7C284.4,39,266.2,53,266.2,53l17.4-10.1
				c0,0-11.2,9.6-10.6,10.6c0.2,0.3,7.1-5.2,7.5-4.4"/>
			<path fill="none" stroke="#F29671" stroke-width="3" stroke-linecap="round" stroke-linejoin="round" d="M252.5,63.3
				c0,0,10.1-7.5,10.8-6.3c0.8,1.4-15.4,12.4-15.4,12.4c0.5,0.9,23.2-13.6,23.3-13.5c0.7,1.3-23.8,12.3-23,13.7
				c1.5,2.7,22.7-15.4,23.7-13.7c1.3,2.2-23.2,13.6-22.7,14.5c1.5,2.6,24.4-14.9,24.8-14.3l-21.5,16.7c0.5,0.8,26.8-15.5,26.8-15.5
				C280,58.7,258.4,76,258.4,76l26.9-15.5c1.5,2.6-24.2,16.4-24.2,16.4c1.3,2.2,26-15,26-15c1,1.7-18.6,16.3-18.6,16.3l22.2-12.8
				c0,0-10.2,10.2-9.6,11.2c0.2,0.4,11-8.1,11.8-6.8"/>
			<path fill="none" stroke="#F29671" stroke-width="3" stroke-linecap="round" stroke-linejoin="round" d="M296.8,139.4
				c0,0,2.2-1.6,2.4-1.4c0.2,0.4-2.4,4.9-2.4,4.9c0.2,0.3,8.5-5,8.5-4.9c0.3,0.5-8.8,4.8-8.5,5.4c0.6,1.1,8.9-6.1,9.3-5.4
				c0.5,0.9-9.5,6.3-9.3,6.7c0.7,1.2,11.5-7,11.7-6.7l-11.7,11c0.3,0.6,19.1-11,19.1-11c0.7,1.2-20.1,18.1-20.1,18.1l31.4-18.1
				c2,3.5-33.1,21.6-33.1,21.6c1.8,3.2,37.4-21.6,37.4-21.6c1.7,3-36.3,26.5-36.3,26.5l45.9-26.5c0,0-37.7,23.6-36,26.5
				c0.9,1.6,42.9-31.7,45.9-26.5c1.7,2.9-45.9,26.4-45.8,26.5c3.1,5.4,45.9-26.5,45.9-26.5s-39.6,21.5-36.7,26.5
				c0,0,41.3-29.7,43.8-25.3c0,0-41.1,21.8-39.1,25.3c1.1,1.8,38.1-24.3,39.1-22.6c0.5,0.9-27.3,22.4-27.3,22.6
				c0,0,26.1-17.7,27.2-15.7c0.5,0.9-16.5,15.7-16.5,15.7s14.4-9.8,15-8.7l-10.3,8.2c0,0.1,7.7-5.5,8.1-4.7"/>
			<path fill="none" stroke="#F2BF19" stroke-width="3" stroke-linecap="round" stroke-linejoin="round" d="M296.8,174.5
				c0,0,2.2-1.6,2.4-1.4c0.2,0.4-2.4,4.9-2.4,4.9c0.2,0.3,8.5-5,8.5-4.9c0.3,0.5-8.8,4.8-8.5,5.4c0.6,1.1,8.9-6.1,9.3-5.4
				c0.5,0.9-9.5,6.3-9.3,6.7c0.7,1.2,11.5-7,11.7-6.7l-11.7,11c0.3,0.6,19.1-11,19.1-11c0.7,1.2-20.1,18.1-20.1,18.1l31.4-18.1
				c2,3.5-33.1,21.6-33.1,21.6c1.8,3.2,37.4-21.6,37.4-21.6c1.7,3-36.3,26.5-36.3,26.5l45.9-26.5c0,0-37.7,23.6-36,26.5
				c0.9,1.6,42.9-31.7,45.9-26.5c1.7,2.9-45.9,26.4-45.8,26.5c3.1,5.4,45.9-26.5,45.9-26.5s-39.6,21.5-36.7,26.5
				c0,0,41.3-29.7,43.8-25.3c0,0-41.1,21.8-39.1,25.3c1.1,1.8,38.1-24.3,39.1-22.6c0.5,0.9-27.3,22.4-27.3,22.6
				c0,0,26.1-17.7,27.2-15.7c0.5,0.9-16.5,15.7-16.5,15.7s14.4-9.8,15-8.7l-10.3,8.2c0,0.1,7.7-5.5,8.1-4.7"/>
		</g>
	</g>
</g>
<g id="icon1_strokes">
	<g>
		<g>
			<path fill="none" stroke="#CC6242" stroke-width="5" stroke-miterlimit="10" d="M44.4,135.4c-1.2-1.5-2.6-2.9-3.8-4.3
				c-1.2-1.5-2.3-3.1-3.5-4.6c-1.2-1.5-2.6-2.9-3.7-4.4c-1.2-1.6-2.3-3.1-3.3-4.7c-1-1.7-2-3.4-2.7-5.1c-0.8-1.8-1.2-3.7-1.6-5.5
				c-0.5-1.8-1-3.7-1-5.7c-0.1-2,0-4,0.2-5.8c0.2-2,0.8-3.9,1.2-5.7c0.5-2,1.3-3.7,2.1-5.4c0.9-1.8,1.7-3.6,2.9-5
				c1.2-1.6,2.7-2.8,4.2-4c1.5-1.3,3.1-2.4,4.7-3.3c1.7-1,3.4-1.9,5.2-2.6c1.9-0.7,3.8-1.1,5.6-1.5c2-0.3,3.9-0.4,5.8-0.4
				c1.8,0,3.8,0.1,5.7,0.5c1.8,0.3,3.7,0.9,5.5,1.6c1.8,0.7,3.5,1.4,5.2,2.4c1.6,1,3.1,2.1,4.6,3.4c1.4,1.2,2.7,2.6,3.9,4.2
				c1.1,1.5,2.4,3,3.2,4.8c0.8,1.7,1.5,3.5,2.1,5.4c0.5,1.8,0.6,3.7,0.8,5.7c0.2,1.8,0.4,3.7,0.3,5.7c-0.1,1.9-0.3,3.7-0.8,5.6
				c-0.4,1.8-0.9,3.6-1.8,5.4c-0.7,1.6-1.8,3.2-2.9,5c-0.9,1.5-2,3.1-3.2,4.7c-1,1.5-1.9,3.2-3.2,4.8c-1.1,1.4-2.5,2.8-3.7,4.3
				c-1.2,1.4-2.4,2.8-3.7,4.3c-0.9,1.1-1,3.3-0.7,5.6c0.2,1.9,0.7,3.8,0.8,5.7c0.2,2.4-0.1,4.4-1.4,5.3c-1.4,0.9-3.3,1.6-5.3,2
				c-1.8,0.4-3.7,0.6-5.6,0.7c-2,0-3.9-0.1-5.7-0.5c-2.2-0.4-4.1-1.2-5.2-2.2c-1.2-1-1.3-3.1-1.2-5.4c0.1-1.8,0.3-3.8,0.4-5.6
				C45,138.4,45.2,136.3,44.4,135.4z"/>
		</g>
		<g>
			<path fill="none" stroke="#CC6242" stroke-width="5" stroke-miterlimit="10" d="M44.8,136.5c2.9,0,2.9,0,5.7,0c2.9,0,2.9,0,5.7,0
				c2.9,0,2.9,0,5.7,0c2.9,0,2.9,0,5.7,0"/>
		</g>
		<g>
			<path fill="none" stroke="#CC6242" stroke-width="5" stroke-miterlimit="10" d="M51.9,154.4c-2.2,1.6,1,2.7,4.4,2.7
				c3.4,0,7-0.8,4.8-2.7c-1.8-1.5-2.4,0.4-4.6,0C54.1,154,53.7,153,51.9,154.4z"/>
		</g>
		<g>
			<path fill="#CC6242" d="M47.6,138.3c0,0-0.1-0.1-0.3-0.3c0,0-0.1-0.1-0.2-0.3c-0.1-0.1-0.2-0.2-0.3-0.4c-0.2-0.3-0.4-0.6-0.6-1.1
				c-0.2-0.5-0.4-1.1-0.4-1.7c0-0.6,0-1.1,0-1.4c0-0.8,0-1.2-0.2-2c-0.5-2-1-4.4-1.7-7.3c-0.3-1.5-0.6-2.9-0.9-4.4
				c-0.2-0.8-0.4-1.5-0.6-2.3c-0.2-0.8-0.5-1.7-0.7-2.6c-0.8-3.4-1.6-7.2-2.5-11.1l-0.2-0.7l-0.1-0.4l0-0.1l0-0.2l0,0
				c0-0.2,0-0.6,0-0.8c0-0.2,0.1-0.4,0.2-0.6c0.4-0.8,1-1.2,1.6-1.4c0.7-0.2,1.6-0.1,2.2,0.4c0.2,0.1,0.3,0.3,0.4,0.4
				c0.2,0.2,0.1,0.2,0.2,0.2l0.1,0.2l0.2,0.3c0.5,0.8,1.1,1.6,1.8,2.3c1.3,1.5,2.7,3.1,4.3,4.3c0.4,0.3,0.8,0.6,1.1,0.8
				c0.2,0.1,0.3,0.2,0.4,0.2c0,0,0,0,0,0c-0.1,0,0.1,0-0.1,0l0.1,0l0.1,0c0,0-0.1,0-0.1,0c0.1,0,0.7-0.2,1.1-0.4
				c0.4-0.2,0.9-0.5,1.3-0.7c0.9-0.5,1.8-1.1,2.6-1.8c0.8-0.6,1.6-1.3,2.1-2c0.1-0.1,0.2-0.3,0.2-0.3l0.1-0.2c0,0,0,0,0,0.1
				c0,0,0,0,0,0.1c0,0.1,0.1,0.3,0.2,0.3c0.1,0,0,0-0.2-0.1c-0.6-0.2-1.7-0.3-2.8-0.3c-0.3,0-0.5,0-0.7,0c-0.2,0-0.5,0-0.7,0.1
				c-0.4,0.1-0.8,0.2-0.8,0.2c0,0,0.1-0.1,0.1-0.3c0-0.1,0-0.1,0,0c0-0.1,0.1,0.3,0.1,0.2l0.1,0.2c0.1,0.2,0.2,0.4,0.4,0.5
				c1.2,1.5,3.1,2.8,4.9,3.7c0.5,0.2,0.9,0.4,1.4,0.5c0.2,0.1,0.4,0.1,0.6,0.1c0.1,0,0.2,0,0.2,0c0.1,0,0.3,0,0.4,0
				c0.7-0.1,1.5-0.4,2.2-1c1.4-1.2,2.4-3.1,3.4-5c0.2-0.5,0.5-1,0.7-1.6l0.2-0.4l0-0.1c-0.1,0.1,0.1-0.2,0.1-0.2l0,0
				c0,0,0-0.1,0.1-0.2c0.1-0.1,0.2-0.2,0.3-0.3c0.1-0.1,0.2-0.1,0.2-0.2c0.2-0.1,0.3-0.2,0.5-0.2c0.7-0.2,1.2-0.1,1.7,0.1
				c0.5,0.2,1,0.7,1.2,1.4c0.1,0.3,0.1,0.7,0.1,1l-0.1,0.3l-0.1,0.4l-0.2,0.8c-0.1,0.5-0.2,1.1-0.3,1.6c-0.2,1.1-0.4,2.2-0.6,3.2
				c-0.2,1.1-0.5,2.2-0.7,3.2c-0.2,1-0.4,2-0.6,3c-0.2,1-0.3,1.9-0.5,3c-0.7,4.1-1.5,7.7-2.1,11.2c-0.2,0.8-0.3,1.7-0.5,2.5
				c0,0.2-0.1,0.5-0.1,0.6c0,0.1,0,0.2,0,0.4c0,0.3,0,0.6,0,0.9c0,0.4,0.1,0.9,0,1.6c-0.1,0.7-0.3,1.5-0.7,2.1c-0.3,0.6-0.7,1-1,1.3
				l-0.1,0.1l-0.1,0.1l-0.1,0.1l-0.2,0.2l-0.1,0l-0.1,0.1l-0.2,0.2c-0.2,0.1-0.3,0.2-0.5,0.3c-0.7,0.4-1.8,0.6-2.6,0.5
				c-0.8-0.1-1.1-0.3-1.4-0.4c-0.6-0.2-0.8-0.2-1.1-0.2l-0.5,0c-0.2,0-0.4,0-0.6,0c-0.4,0-0.7-0.1-1-0.1c-0.7-0.1-0.9-0.1-1.1-0.1
				c-0.3,0-0.7,0.1-1,0.1c-0.1,0-0.2,0.1-0.3,0.1l-0.2,0.1c-0.1,0-0.3,0.1-0.5,0.1c-0.3,0.1-0.7,0.2-1.1,0.4
				c-0.5,0.1-1.2,0.3-1.9,0.2c-0.7-0.1-1.3-0.4-1.6-0.6c-0.4-0.2-0.6-0.4-0.8-0.5C47.9,138.5,47.7,138.4,47.6,138.3L47.6,138.3z
				 M51.1,134.7c0,0,0.1,0.1,0.2,0.2c0.1,0.1,0.2,0.1-0.2,0c-0.2,0-0.3,0-0.1,0c0.3-0.1,0.6-0.2,0.9-0.3c0.2-0.1,0.4-0.2,0.7-0.2
				c0.1,0,0.3-0.1,0.4-0.1c0.1,0,0.2-0.1,0.3-0.1c0.6-0.1,1.1-0.2,1.9-0.3c0.7-0.1,1.6,0.1,2.1,0.1c0.2,0,0.5,0.1,0.7,0.1l0.3,0
				l0.5,0c0.9,0,2,0.3,2.7,0.5c0.3,0.1,0.6,0.2,0.5,0.2c-0.1,0-0.5,0-0.5,0.1c0,0,0,0-0.1,0c0,0,0,0,0,0l0,0l0,0l0.2-0.2l0,0
				c0,0,0.1-0.1-0.1,0.1l0,0l0.1-0.1c0.2-0.2,0.3-0.3,0.4-0.4c0-0.1,0,0,0.1-0.1c0-0.1,0-0.3,0-0.8c0-0.4,0-1,0-1.5
				c0-0.3,0-0.6,0.1-0.9c0-0.3,0.1-0.4,0.1-0.7c0.2-0.8,0.4-1.7,0.6-2.6c0.7-3.5,1.7-7.2,2.5-11c0.2-0.9,0.4-2,0.6-3
				c0.2-1,0.5-2.1,0.7-3.1c0.3-1.1,0.5-2,0.8-3.1c0.2-1,0.5-2.1,0.7-3.2c0.1-0.5,0.2-1.1,0.4-1.6l0.2-0.8l0.1-0.4l0-0.1l0-0.1
				c0,0,0-0.1,0,0c0,0.2,0,0.4,0,0.6c0.1,0.4,0.4,0.7,0.7,0.8c0.3,0.1,0.5,0.2,0.9,0c0.1,0,0.2-0.1,0.3-0.1c0.1,0,0.1-0.1,0.1-0.1
				c0.1-0.1,0.1-0.1,0.2-0.2c0.1-0.1,0.1-0.1,0.1-0.1l0,0c0,0,0.2-0.3,0.1-0.1l0,0l-0.2,0.3l-0.7,1.5c-1,2.1-2.2,4.4-4.4,6.2
				c-1.1,0.9-2.5,1.6-4.1,1.7c-0.2,0-0.3,0-0.5,0c-0.3,0-0.5,0-0.7,0c-0.4,0-0.8-0.1-1.1-0.2c-0.7-0.2-1.3-0.4-1.9-0.7
				c-1.2-0.6-2.3-1.2-3.3-2c-1-0.8-2-1.6-2.9-2.7c-0.2-0.3-0.4-0.6-0.6-0.9c-0.1-0.2-0.2-0.3-0.3-0.6c-0.1-0.3-0.1-0.2-0.2-0.6
				c-0.1-0.4-0.3-1.1-0.1-1.7c0.1-0.7,0.6-1.3,1-1.7c0.9-0.8,1.7-0.9,2.5-1.1c0.4-0.1,0.7-0.1,1-0.1c0.3,0,0.7,0,1,0
				c1.3,0,2.5,0,4.1,0.5c0.4,0.2,0.9,0.4,1.3,0.8c0.5,0.4,0.9,1.1,1,1.8c0,0.4,0,0.7,0,1c0,0.2-0.1,0.3-0.1,0.5l-0.1,0.2
				c-0.2,0.5-0.4,0.9-0.6,1.2c-0.9,1.3-1.8,2.1-2.8,2.8c-1,0.8-1.9,1.4-3,2.1c-0.5,0.3-1,0.6-1.6,0.9c-0.6,0.3-1.1,0.6-2.1,0.8
				c-0.2,0-0.4,0.1-0.5,0.1l-0.1,0l-0.1,0c-0.3,0-0.2,0-0.3,0c-0.3,0-0.6-0.1-0.8-0.2c-0.5-0.1-0.8-0.3-1.1-0.5
				c-0.6-0.3-1.2-0.7-1.6-1.1c-1.9-1.5-3.4-3.1-4.9-4.8c-0.7-0.8-1.4-1.7-2.1-2.6l-0.2-0.3l-0.1-0.2c0,0-0.1-0.1,0,0.1
				c0.1,0.1,0.2,0.2,0.3,0.3c0.4,0.4,1.1,0.4,1.5,0.3c0.4-0.1,0.8-0.4,1.1-0.9c0.1-0.1,0.1-0.3,0.1-0.4c0-0.1,0-0.5,0-0.6l0,0
				c0,0.2,0-0.2,0-0.1l0,0.1l0.1,0.4l0.2,0.7c1,3.9,1.9,7.6,2.8,11c0.2,0.8,0.4,1.6,0.7,2.4c0.2,0.8,0.5,1.7,0.7,2.4
				c0.4,1.6,0.8,3.2,1,4.5c0.7,2.7,1.3,5.1,1.8,7.1c0.3,1.1,0.4,2.6,0.4,3.4c0,0.4,0,0.7,0,0.8c0,0.1,0,0.1,0,0.1
				c0,0.1,0.1,0.1,0.1,0.1c0,0,0,0,0.1,0.1c0,0,0,0,0.1,0.1C51.1,134.7,51.2,134.8,51.1,134.7L51.1,134.7z"/>
		</g>
		<g>
			<path fill="none" stroke="#CC6242" stroke-width="5" stroke-miterlimit="10" d="M48.8,145.5c-1.9,0-1.9,0-3.7,0
				c-0.1,0-0.2-0.1-0.2-0.2c0,0,0,0,0,0c0-0.1,0.1-0.2,0.2-0.2c1.9,0,1.9,0,3.7,0c0.1,0,0.2,0.1,0.2,0.2c0,0,0,0,0,0
				C48.9,145.4,48.9,145.5,48.8,145.5z"/>
		</g>
		<g>
			<path fill="none" stroke="#CC6242" stroke-width="5" stroke-miterlimit="10" d="M67.7,145.4c-2.8,0-2.8,0-5.5,0s-2.8,0-5.5,0
				c-0.1,0-0.1,0-0.1-0.1c0,0,0,0,0,0c0-0.1,0-0.1,0.1-0.1c2.8,0,2.8,0,5.5,0s2.8,0,5.5,0C67.7,145.2,67.8,145.2,67.7,145.4
				C67.8,145.3,67.8,145.3,67.7,145.4C67.8,145.4,67.7,145.4,67.7,145.4z"/>
		</g>
		<g>
			<path fill="#CC6242" d="M30.5,128.4c0,0-0.2,0.3-0.6,0.7c-0.4,0.5-1,1.1-1.7,2c-0.7,0.8-1.5,1.7-2.5,2.7c-0.5,0.5-1,0.9-1.5,1.4
				l-0.8,0.7l-0.1,0.1l-0.1,0.1l-0.1,0.1l-0.2,0.2c-0.2,0.2-0.4,0.3-0.6,0.4c-0.9,0.4-2.1,0.3-2.9-0.3c-0.1-0.1-0.2-0.1-0.3-0.2
				l-0.1-0.1c-1.4-0.5,2.4,1.3,2.8,0.6c0.5-0.2,0.4-0.2,0.5-0.2c0,0,0,0.1-0.6,0.3c-0.7,0.7-4.3-1.4-2.9-0.8l0,0l-0.1-0.1
				c-0.1-0.1-0.1-0.1-0.2-0.2c-0.3-0.5-0.5-0.9-0.5-1.4c-0.1-0.9,0.2-1.7,0.8-2.4c0.5-0.5,1.1-1,1.6-1.5c0.5-0.5,1-1,1.5-1.4
				c1-0.9,1.9-1.8,2.6-2.6c0.7-0.8,1.3-1.5,1.7-1.9l0,0l0.1-0.1l0.1-0.1l0.1-0.1c0.3-0.3,0.7-0.4,1-0.5c0.7-0.2,1.5-0.1,2.1,0.2
				c0.1,0.1,0.3,0.2,0.4,0.2l0.2,0.1l0.1,0.1l0,0c-0.2,0-0.3-0.5-1.2-0.7c-1.5-0.1-1.1,0.1-1.5,0.1c-0.2,0.1-0.3,0.1-0.3,0.1
				l-0.1,0.1l-0.1,0l0.1-0.1l0.1-0.1c0.1,0,0.1-0.1,0.3-0.1c0.2,0,0.4-0.2,1-0.2c0.2-0.4,2.4,1.2,1.9,0.8l0,0l0,0
				c-0.1-0.1,0.2,0.2,0.3,0.3c0.3,0.5,0.5,1,0.5,1.5c0,0.9-0.3,1.4-0.5,1.7C30.6,128.3,30.5,128.4,30.5,128.4z M26.7,124.7
				c0,0-0.1,0.1-0.3,0.4c-0.2,0.3-0.4,0.7-0.4,1.4c0,0.4,0.1,0.8,0.4,1.2c0.1,0.1,0.3,0.4,0.2,0.3l0,0l0,0c-0.5-0.3,1.7,1.3,1.9,0.8
				c0.6,0,0.8-0.1,1-0.2c0.2-0.1,0.2-0.1,0.3-0.1l0.1-0.1l0.1,0l-0.1,0.1l-0.1,0.1c0,0-0.2,0.1-0.3,0.1c-0.4,0,0,0.2-1.5,0.1
				c-0.9-0.2-1.1-0.6-1.2-0.7l0,0l0.1,0.1l0.1,0.1c0.1,0.1,0.2,0.1,0.3,0.2c0.4,0.2,1.1,0.4,1.7,0.2c0.3-0.1,0.6-0.2,0.8-0.4
				l0.1-0.1l0.1-0.1l0,0l0,0l0,0c0.2-0.2,0,0,0.1-0.1l0,0l0,0c-0.5,0.4-1.1,1-1.9,1.8c-0.8,0.7-1.6,1.7-2.5,2.7
				c-0.5,0.5-0.9,1-1.4,1.5c-0.4,0.5-0.9,1-1.4,1.6c0.5-0.5,0.7-1.2,0.6-1.9c0-0.4-0.2-0.7-0.4-1.1c0-0.1-0.1-0.1-0.2-0.2l-0.1-0.1
				l0,0l0,0c1.4,0.6-2.2-1.4-2.9-0.7c-0.5,0.2-0.5,0.2-0.5,0.2c0,0,0,0,0.5-0.2c0.5-0.7,4.2,1.1,2.8,0.6l-0.1-0.1
				c-0.1-0.1-0.1-0.1-0.2-0.2c-0.6-0.5-1.6-0.6-2.4-0.2c-0.2,0.1-0.3,0.2-0.5,0.3c-0.1,0-0.1,0.1-0.2,0.1l-0.1,0.1l0,0l0,0
				c0,0-0.2,0.2-0.1,0.1l0,0l0.1-0.1c0.2-0.3,0.5-0.5,0.7-0.8c0.5-0.5,0.9-1,1.4-1.5c0.9-1,1.8-1.8,2.5-2.6
				C25.6,125.7,26.7,124.7,26.7,124.7z"/>
		</g>
		<g>
			<path fill="#CC6242" d="M53.7,59.1c0,0,0-0.4,0-1c0-0.6-0.1-1.5-0.1-2.6c-0.1-1.1-0.1-2.3-0.2-3.7c0-0.7-0.1-1.4-0.1-2.1
				c0-0.3,0-0.7,0-1.1l0-0.1l0-0.2l0-0.2c0-0.1,0-0.2,0-0.3l0.1-0.2c0-0.1,0.1-0.3,0.1-0.4c0.5-1.1,1.4-1.6,2.3-1.8
				c0.2,0,0.4-0.1,0.6-0.1c-1.2-0.3-3.7,2.8-2.7,2c-0.1,0.2-0.1,0.2-0.1,0.2c0,0,0,0,0-0.1c0.1-0.2-0.2,0,0.7-1.3
				c4.5-1.9,1.3-0.5,2.3-0.9l0,0c0,0,0,0,0.1,0c0.2,0,0.4,0.1,0.5,0.1c0.1,0,0.3,0.1,0.4,0.1c0.3,0.1,0.5,0.2,0.7,0.4
				c0.8,0.7,1.1,1.6,1.2,2.4c0,0.1,0,0.1,0,0.1l0,0l0,0.1l0,0.1l-0.1,0.3c0,0.2-0.1,0.4-0.1,0.5c0,0.4,0,0.7,0,1c0,0.7,0,1.4,0,2.1
				c0,1.3,0,2.6,0,3.6c0,1.1,0,2,0,2.6c0,0.1,0,0.2,0,0.2c0,0.1,0,0.3,0,0.4c0,0.1,0,0.2-0.1,0.3c-0.1,0.2-0.1,0.3-0.2,0.5
				c-0.3,0.6-0.8,1.1-1.4,1.3c-0.3,0.1-0.5,0.2-0.8,0.2l-0.2,0l0,0l0,0c-0.5-0.1-0.1,0.1-1.2-0.3c-0.8-0.5-0.9-0.9-1-1
				c0-0.1,0-0.1,0.2,0.2c0.1,0.2,0.3,0.4,0.7,0.6c0.4,0.2,0.9,0.4,1.3,0.4l-0.1,0l0,0l-0.1,0c-0.4,0-0.5-0.1-0.8-0.2
				c-0.2-0.1-0.4-0.2-0.6-0.3c-0.8-0.6-1-1.3-1.1-1.7C53.7,59.3,53.7,59.1,53.7,59.1z M58.7,59.1c0,0,0-0.1,0-0.5
				c-0.1-0.3-0.3-0.9-0.9-1.4c-0.2-0.1-0.3-0.2-0.5-0.3c-0.2-0.1-0.3-0.1-0.6-0.1c-0.1,0,0,0,0,0l0,0l0,0c0,0,0.1,0-0.1,0
				c0.4,0,1,0.2,1.3,0.4c0.4,0.3,0.5,0.5,0.7,0.6c0.2,0.3,0.2,0.3,0.2,0.3c-0.1-0.1-0.2-0.5-1-1c-1.1-0.4-0.6-0.2-1.2-0.3h0l0,0
				l-0.2,0c-0.2,0-0.4,0.1-0.6,0.2c-0.4,0.2-0.9,0.5-1.1,1c-0.1,0.1-0.1,0.3-0.2,0.4c0,0.1,0,0.1-0.1,0.2c0,0.1,0,0.2,0,0.3l0,0
				c0,0,0,0.2,0,0.1l0,0l0,0l0,0l0-0.1c0-0.6,0-1.5,0-2.6c0-1.1,0-2.3,0-3.6c0-0.7,0-1.3,0-2c0-0.4,0-0.7-0.1-1.1
				c0-0.2-0.1-0.4-0.1-0.5l-0.1-0.3l0-0.1l0-0.1l0,0c0,0,0,0,0,0.1c0,0.6,0.2,1.3,0.9,1.9c0.2,0.1,0.4,0.3,0.6,0.3
				c0.1,0,0.2,0.1,0.3,0.1c0.1,0,0.3,0.1,0.5,0.1c0.1,0,0,0,0,0l0,0c1-0.4-2.3,0.9,2.3-0.9c0.9-1.3,0.5-1,0.6-1.2c0-0.1,0-0.1,0-0.1
				c0,0,0,0.1-0.1,0.3c1-0.8-1.6,2.4-2.7,2c0.2,0,0.3,0,0.5,0c0.6-0.1,1.5-0.6,1.9-1.5c0-0.1,0.1-0.2,0.1-0.3l0-0.2
				c0-0.1,0-0.2,0-0.3c0-0.3,0-0.2,0-0.2c0-0.1,0,0.2,0-0.1l0,0l0,0l0,0.1c0,0.4,0,0.7,0,1.1c0,0.7,0,1.4-0.1,2.1
				c-0.1,1.3-0.1,2.6-0.2,3.6c0,1.1-0.1,2-0.1,2.6C58.7,58.8,58.7,59.1,58.7,59.1z"/>
		</g>
		<g>
			<path fill="#CC6242" d="M26.7,73.1c0,0-1-1-2.5-2.6c-0.7-0.8-1.6-1.7-2.5-2.6c-0.5-0.5-0.9-1-1.4-1.5l-0.7-0.8l-0.1-0.1l-0.1-0.2
				c-0.1-0.1-0.2-0.3-0.2-0.3c-0.1-0.2-0.2-0.4-0.3-0.5c-0.3-0.7-0.2-1.6,0.3-2.4c0.1-0.2,0.3-0.4,0.4-0.5l0,0c0,0,0.2-0.2,0.1-0.1
				l0,0l0.1-0.1c0.1-0.1,0.1-0.1,0.2-0.1c0.4-0.3,0.8-0.4,1.2-0.4c0.8-0.1,1.7,0.2,2.3,0.8c2,2.1,4,4.1,5.5,5.6
				c0.8,0.8,1.4,1.4,1.9,1.8l0.1,0.1c-0.1-0.1,0.3,0.3,0.3,0.5c0.2,0.3,0.3,0.7,0.3,1c0.1,0.6,0,1.2-0.3,1.7
				c-0.1,0.3-0.3,0.5-0.5,0.7l0,0l0,0c-0.2,0.1,0.4-0.3-0.4,0.3c0.5-0.2-1,0.5-1.5,0.4c-0.5,0-0.6-0.1-0.8-0.1
				c-0.3-0.1-0.3-0.1-0.4-0.2c0,0,0,0,0.1,0c0.1,0,0.2,0.2,1,0.2c0.3,0,1.2-0.1,1.8-0.6c0.1-0.1,0,0,0.1-0.1l0,0l0,0l-0.2,0.2
				c-0.5,0.3-0.9,0.5-1.3,0.5c-0.9,0.1-1.6-0.2-1.9-0.4C26.9,73.2,26.7,73.1,26.7,73.1z M30.4,69.5c0,0-0.1-0.1-0.4-0.3
				c-0.3-0.2-0.8-0.4-1.5-0.3c-0.4,0.1-0.7,0.2-1.1,0.4c-0.1,0-0.1,0.1-0.2,0.1l0,0l0,0l0.1-0.1c0.6-0.5,1.5-0.6,1.8-0.6
				c0.8,0.1,0.9,0.2,1,0.2c0.1,0,0.1,0.1,0.1,0c0,0-0.1-0.1-0.4-0.2c-0.2,0-0.3-0.1-0.8-0.1c-0.5-0.1-2,0.7-1.5,0.4
				c-0.8,0.6-0.2,0.2-0.4,0.3l0,0l0,0c-0.2,0.2-0.3,0.4-0.4,0.6c-0.2,0.4-0.3,0.9-0.2,1.3c0,0.2,0.1,0.5,0.3,0.8
				c0.1,0.1,0.4,0.5,0.3,0.4l0,0l0,0c0.2,0.2,0.1,0.1,0.1,0.1l0,0l0,0c-0.4-0.4-1-1.1-1.8-1.8c-1.5-1.5-3.5-3.6-5.5-5.7
				c0.5,0.5,1.2,0.7,1.8,0.6c0.3,0,0.6-0.1,1-0.4c0.1,0,0.1-0.1,0.2-0.1l0.1-0.1c0,0,0,0,0,0l0,0c-0.1,0.1,0.1-0.1,0.1-0.1l0,0
				c0.1-0.1,0.2-0.3,0.3-0.4c0.4-0.7,0.4-1.3,0.2-1.9c-0.1-0.1-0.1-0.3-0.2-0.4c0-0.1-0.1-0.2-0.2-0.3L23,62.1l0.1,0.1l0.7,0.8
				c0.5,0.5,1,1,1.4,1.5c0.9,0.9,1.8,1.8,2.6,2.6C29.4,68.5,30.4,69.5,30.4,69.5z"/>
		</g>
		<g>
			<path fill="#CC6242" d="M17,101c0,0-0.4,0-1,0.1c-0.6,0-1.5,0.1-2.6,0.2c-1.1,0.1-2.3,0.1-3.6,0.1c-0.7,0-1.4,0-2.1-0.1
				c-0.4,0-0.7,0-1.1-0.1l-0.3,0c0.1,0-0.4,0-0.5-0.1c-0.2,0-0.4-0.1-0.5-0.2c-0.6-0.3-1.2-0.9-1.4-1.7C4,99.1,4,99,4,98.9l0-0.2
				l0-0.1c-0.1-1.4,2.3-2.8,1.7-2.2c0.2,0,0.2,0,0.2,0c0,0,0,0-0.1,0c-0.1,0.1-0.1-0.1-0.8,0.3c-1.9,2.7-0.6,1.5-1,1.8l0-0.1
				c0-0.3,0.1-0.4,0.2-0.6c0.1-0.2,0.2-0.4,0.3-0.5c0.4-0.7,1.3-1.1,2.1-1.1c0.7,0,1.4,0.1,2.1,0.1c0.7,0,1.4,0.1,2.1,0.1
				c1.3,0.1,2.6,0.1,3.7,0.1c1.1,0,2-0.1,2.6-0.2c0,0,0.3,0,0.7,0.1c0.3,0.1,0.6,0.3,0.9,0.5c0.5,0.4,0.7,0.9,0.8,1.3
				c0,0.1,0,0.2,0,0.3l0,0.2c-0.2-1.2,0.1-0.5-0.8-1.7c-0.5-0.3-0.4-0.2-0.6-0.3l-0.2,0l-0.1,0l-0.1,0l0.1,0c0.1,0,0.1,0,0.2,0.1
				c0,0,0.1,0,0.3,0.1c0.1,0.1,0.5,0.1,0.9,0.8c0.6,1.5,0.2,1.2,0.3,1.2l0,0l0,0l0,0l0,0.2c0,0.1,0,0.2,0,0.3
				c-0.1,0.5-0.4,0.9-0.6,1.1c-0.5,0.5-0.9,0.6-1.3,0.7C17.2,101,17,101,17,101z M17,96.8c0,0-0.1,0-0.3,0c-0.2,0.1-0.5,0.1-0.9,0.5
				c-0.2,0.2-0.4,0.5-0.5,0.9c0,0.1,0,0.1,0,0.2l0,0.1l0,0l0,0l0,0l0,0c0.1,0-0.3-0.3,0.3,1.2c0.4,0.7,0.8,0.7,0.9,0.8
				c0.1,0.1,0.3,0.1,0.3,0.1c0.1,0,0.2,0,0.2,0l0.1,0l-0.1,0l-0.1,0l-0.2,0c-0.2-0.1-0.1,0-0.6-0.3c-0.9-1.2-0.6-0.4-0.9-1.7l0,0.1
				c0,0.1,0,0.2,0,0.2c0.1,0.3,0.2,0.7,0.6,1c0.2,0.2,0.4,0.3,0.7,0.4c0.4,0.1,0.6,0.1,0.5,0.1c-0.6,0-1.5-0.1-2.6-0.2
				c-1.1,0-2.3,0-3.7,0.1c-0.7,0-1.4,0.1-2.1,0.1c-0.7,0.1-1.4,0.1-2.1,0.2c0.6,0,1.3-0.3,1.6-0.9c0.1-0.1,0.2-0.3,0.2-0.4
				c0.1-0.2,0.1-0.2,0.1-0.5c0-0.2,0-0.1,0-0.1c-0.4,0.3,0.9-1-1,1.8c-0.7,0.4-0.7,0.3-0.8,0.3c-0.1,0-0.1,0-0.1,0c0,0,0,0,0.2,0
				c-0.6,0.6,1.8-0.8,1.7-2.2l0-0.1l0-0.1c0-0.1,0-0.2,0-0.3c-0.2-0.7-0.6-1.1-1-1.3c-0.1-0.1-0.2-0.1-0.4-0.1
				c-0.1,0-0.6-0.1-0.4-0.1l0,0c-0.2,0-0.1,0-0.1,0l0,0l0,0l0.1,0c0.4,0,0.7,0,1.1-0.1c0.7,0,1.4-0.1,2.1-0.1c1.4-0.1,2.6,0,3.7,0.1
				c1.1,0.1,2,0.2,2.6,0.2C16.7,96.8,17,96.8,17,96.8z"/>
		</g>
		<g>
			<path fill="none" stroke="#CC6242" stroke-width="5" stroke-miterlimit="10" d="M276.1,213.3c-2.7,0-2.7,0.3-5.5,0.3
				c-2.7,0-2.7,0-5.5,0c-2.7,0-2.7-0.2-5.5-0.2c-2.7,0-2.7,0-5.5,0c-2.7,0-2.7,0.1-5.5,0.1c-2.7,0-2.7,0.1-5.5,0.1
				c-2.7,0-2.7,0-5.5,0c-2.7,0-2.7-0.2-5.5-0.2c-2.7,0-2.7,0.2-5.5,0.2c-2.7,0-2.7-0.3-5.5-0.3c-2.7,0-2.7,0.1-5.5,0.1
				c-2.7,0-2.7-0.1-5.5-0.1c-2.7,0-2.7,0.1-5.5,0.1c-2.7,0-2.7,0-5.5,0c-2.7,0-2.7,0-5.5,0c-2.7,0-2.7,0.2-5.5,0.2
				c-1.5,0-2.9-1.4-2.9-2.9c0-2.9,0.3-2.9,0.3-5.7c0-2.9-0.2-2.9-0.2-5.7c0-2.9,0.1-2.9,0.1-5.7c0-2.9-0.1-2.9-0.1-5.7
				c0-2.9,0-2.9,0-5.7c0-2.9,0.2-2.9,0.2-5.7c0-2.9-0.2-2.9-0.2-5.7c0-2.9,0.2-2.9,0.2-5.7c0-2.9-0.2-2.9-0.2-5.7
				c0-2.9,0.1-2.9,0.1-5.7s0.2-2.9,0.2-5.7c0-1.5,1-2.8,2.6-2.8c2.7,0,2.7-0.2,5.5-0.2c2.7,0,2.7,0.2,5.5,0.2c2.7,0,2.7-0.2,5.5-0.2
				c2.7,0,2.7,0.2,5.5,0.2c2.7,0,2.7,0.2,5.5,0.2c2.7,0,2.7,0,5.5,0c2.7,0,2.7,0,5.5,0c2.7,0,2.7-0.3,5.5-0.3c2.7,0,2.7,0.1,5.5,0.1
				c2.7,0,2.7,0,5.5,0c2.7,0,2.7,0,5.5,0c2.7,0,2.7,0.1,5.5,0.1c2.7,0,2.7-0.1,5.5-0.1c2.7,0,2.7,0,5.5,0c2.7,0,2.7,0,5.5,0
				c2.7,0,2.7,0.3,5.5,0.3c1.5,0,2.7,1.1,2.7,2.7c0,2.9,0.2,2.9,0.2,5.7c0,2.9-0.3,2.9-0.3,5.7c0,2.9,0,2.9,0,5.7
				c0,2.9,0.1,2.9,0.1,5.7c0,2.9,0.2,2.9,0.2,5.7c0,2.9-0.3,2.9-0.3,5.7c0,2.9,0.1,2.9,0.1,5.7c0,2.9,0.1,2.9,0.1,5.7
				c0,2.9,0,2.9,0,5.7c0,2.9-0.2,2.9-0.2,5.7s0.3,2.9,0.3,5.7C279,212.1,277.6,213.3,276.1,213.3z"/>
		</g>
		<g>
			<path fill="#CC6242" d="M187.1,143.5c0,0,0.4,0.2,1.1,0.7c0.7,0.5,1.7,1.2,3,2c0.6,0.4,1.4,0.9,2.1,1.3c0.8,0.4,1.7,1,2.6,1.7
				c1,0.7,1.7,1.1,2.8,1.8c0.6,0.3,1.1,0.7,1.7,1.1c0.3,0.2,0.6,0.4,0.8,0.6c0.3,0.2,0.6,0.4,0.9,0.6c1.3,1,2.1,1.6,3.3,2.4
				c1.2,0.8,2.4,1.7,3.7,2.6c1.2,0.8,2.8,2.1,3.8,2.9c0.6,0.4,1.2,0.9,1.9,1.4c0.7,0.5,1.3,0.9,2,1.4c0.7,0.5,1.4,1,2.1,1.5
				c0.6,0.5,1.2,0.8,2,1.3c0.8,0.5,1.6,1.1,2.3,1.6c0.7,0.5,1.4,1,2.1,1.5c1.4,1,2.9,2,4.3,3.1c0.8,0.5,1.5,1,2.2,1.6
				c0.7,0.5,1.6,1.2,2.3,1.8c0.6,0.6,1.2,1,1.9,1.5c0.7,0.5,1.4,1,2.1,1.5c1.5,1,3,2.1,4.6,3.3c0.7,0.6,1.2,1,1.9,1.5
				c0.7,0.5,1.3,1,2,1.4c0.7,0.4,1.5,1,2.3,1.5c0.7,0.5,1.4,1,2,1.5c1.4,1,2.7,2,4,2.9c1.3,1,2.6,1.9,3.8,2.8
				c0.7,0.5,1.3,1.1,1.9,1.5c0.5,0.4,1,0.8,1.6,1.3c1.2,0.9,2.3,1.7,3.3,2.5c0.5,0.4,1.1,0.8,1.6,1.2c0.5,0.3,0.9,0.6,1.4,0.9
				c0.5,0.3,1.1,0.7,1.6,1c0.5,0.4,1,0.7,1.5,1.1c1.7,1.3,3.2,2.5,4.5,3.4c0.7,0.5,1.3,1,1.7,1.4c0.5,0.4,0.8,0.7,1.1,0.9
				c0.6,0.5,0.9,0.7,0.9,0.7l0.1,0c1.1,0.9,1.3,2.4,0.4,3.5c-0.8,1-2.3,1.2-3.4,0.5c0,0-0.4-0.3-1.1-0.8c-0.4-0.3-0.8-0.6-1.3-1
				c-0.5-0.4-1-0.7-1.6-1.1c-1.3-0.9-2.8-2-4.6-3.2c-0.5-0.3-0.9-0.6-1.3-0.9c-0.4-0.3-0.9-0.5-1.4-0.8c-0.6-0.3-1.2-0.7-1.8-1.1
				c-0.5-0.4-1.1-0.7-1.6-1.1c-1.1-0.7-2.3-1.5-3.5-2.4c-0.6-0.4-1.3-0.9-1.9-1.4c-0.6-0.5-1.1-0.9-1.7-1.3
				c-1.2-0.9-2.5-1.8-3.8-2.7c-1.3-0.9-2.7-1.8-4-2.8c-0.7-0.5-1.4-1-2.1-1.4c-0.7-0.5-1.2-0.8-2-1.3c-0.8-0.5-1.6-1-2.3-1.6
				c-0.7-0.5-1.6-1.2-2.2-1.7c-1.2-1-2.6-2-4-2.9c-0.8-0.5-1.6-1.1-2.3-1.6c-0.8-0.5-1.6-1.2-2.3-1.8c-0.7-0.6-1.2-1-1.9-1.5
				l-2.1-1.5c-0.7-0.5-1.5-1-2.2-1.6c-0.7-0.5-1.4-1-2.1-1.5c-0.7-0.5-1.5-1-2.2-1.5c-0.7-0.5-1.3-0.9-2-1.4c-0.7-0.4-1.6-1-2.3-1.5
				c-0.7-0.5-1.4-1-2.1-1.5c-0.7-0.5-1.4-1-2.1-1.4c-0.7-0.5-1.4-1-2.1-1.5c-1.5-1.2-2.3-1.9-3.7-2.8c-1.2-0.9-2.4-1.8-3.6-2.7
				c-1.2-0.8-2.5-2-3.3-2.7c-0.2-0.2-0.5-0.4-0.7-0.6c-0.2-0.2-0.5-0.4-0.7-0.6c-0.5-0.4-0.9-0.7-1.4-1c-1-0.6-2.1-1.5-2.9-2.1
				c-0.8-0.6-1.6-1.2-2.4-1.8c-0.8-0.6-1.5-1.2-2.1-1.6c-1.2-1-2.2-1.8-2.8-2.3c-0.6-0.5-1-0.8-1-0.8l0,0c-1.1-0.9-1.2-2.5-0.3-3.5
				C184.6,143,186,142.8,187.1,143.5z"/>
		</g>
		<g>
			<path fill="none" stroke="#CC6242" stroke-width="5" stroke-linecap="round" stroke-miterlimit="10" d="M277.5,145.5
				c-2.3,1.7-2.3,1.6-4.6,3.3c-2.3,1.7-2.2,1.8-4.5,3.4c-2.3,1.7-2.4,1.5-4.7,3.2c-2.3,1.7-2.1,1.9-4.4,3.6
				c-2.3,1.7-2.3,1.7-4.6,3.3c-2.3,1.7-2.3,1.6-4.6,3.3c-2.3,1.7-2.3,1.7-4.5,3.4c-2.3,1.7-2.2,1.7-4.5,3.4
				c-2.3,1.7-2.3,1.6-4.6,3.3c-2.3,1.7-2.3,1.7-4.5,3.4c-2.3,1.7-2.2,1.7-4.5,3.4c-2.3,1.7-2.3,1.7-4.6,3.4
				c-2.3,1.7-2.4,1.5-4.7,3.1c-2.3,1.7-2.3,1.6-4.6,3.3c-2.3,1.7-2.3,1.7-4.5,3.4c-2.3,1.7-2.3,1.6-4.6,3.3
				c-2.3,1.7-2.1,1.9-4.4,3.6c-2.3,1.7-2.4,1.5-4.7,3.2c-2.3,1.7-2.3,1.6-4.6,3.3s-2.2,1.7-4.5,3.4"/>
		</g>
		<g>
			<path fill="#CC6242" d="M266,128.9c0,0-2.3,0-6.3,0c-1,0-2.1,0-3.3,0c-1.2,0-2.6,0-4-0.1c-1.3,0-2.8-0.1-4.2,0
				c-0.7,0-1.6,0.1-2.5,0.1c-0.9,0-1.7,0-2.6,0c-0.9,0-1.8-0.1-2.6-0.1c-0.9,0-1.8,0-2.7,0c-1.8,0-3.8,0-5.6,0.1c-0.9,0-2,0.1-3,0.1
				c-1,0-2,0-3,0c-2.1,0-4.2,0.1-6.3,0.1c-2.1,0-4.3,0-6.5,0l-0.4,0l-0.3,0l-0.2,0c-0.2,0-0.7-0.1-0.9-0.1c-0.3-0.1-0.5-0.2-0.8-0.3
				c-1-0.4-1.9-1.1-2.5-2c-0.3-0.4-0.6-1-0.7-1.5c-0.1-0.3-0.1-0.6-0.2-0.8c0-0.1,0-0.3,0-0.4l0-0.4l0-1.7c0-1.2,0.1-2.2,0.1-3.3
				c0-1.1,0-2.2-0.1-3.3l-0.1-1.8l0-0.9l0-0.1l0-0.3c0-0.1,0-0.1,0-0.3c0-0.2,0-0.4,0.1-0.6c0-0.2,0.1-0.3,0.1-0.4
				c0.7-2.3,2.6-3.9,5-4.1l0.4,0l0.2,0l0.4,0l0.9,0l1.7,0c1.1,0,2.2,0,3.3,0c1,0,2.3-0.1,3.4-0.1c1.1,0,2.4,0,3.6,0.1
				c1.1,0.1,2.1,0.1,3.2,0.1c1.1,0,2.2,0,3.3-0.1c2.2,0,4.4,0,6.5,0c1.1,0,2.3,0,3.3,0.1c1,0,2,0,3,0c0.5,0,1,0,1.4,0
				c0.5,0,1.1-0.1,1.6-0.1c1.1,0,2.1,0,3.1,0c1.1,0,1.9,0.1,2.9,0.1c0.9,0,1.8,0,2.7,0c0.9,0,1.9-0.1,2.8-0.1c0.9,0,1.8,0,2.7,0
				c0.8,0,1.7,0,2.5,0.1l0.6,0l0.4,0l0.2,0l0.4,0c0.9,0.2,1.6,0.5,2.3,0.9c1.3,0.9,2.1,2.4,2.2,3.8c0,0.2,0,0.4,0,0.5l0,0.3l0,0.5
				c0,0.3,0,0.7,0,1c0,1.3,0.1,2.7,0,4c0,1.2-0.1,2.5-0.1,3.4c0,0.5,0,0.9,0,1.3c0,0.2,0,0.4,0,0.6c0,0.1,0,0.3,0,0.4l0,0.3l0,0.3
				c-0.3,1.5-1.1,2.7-2,3.3c-0.9,0.7-1.7,0.8-2.3,0.9C266.3,128.9,266,128.9,266,128.9z M266,123.8C266,123.8,266.1,123.8,266,123.8
				C266,123.8,266,123.8,266,123.8C266,123.8,266,123.8,266,123.8L266,123.8L266,123.8l0-0.1l0,0C266,123.7,266,123.5,266,123.8
				L266,123.8l0-0.2c0-0.2,0-0.4,0-0.7c0-0.5,0-1,0-1.5c0-1.1,0.1-2,0.1-3.2c0-1.2,0-2.4-0.1-3.8c0-0.6,0-1.3,0-1.9c0,0,0,0,0,0
				c0,0,0,0,0.1,0c0,0,0.1,0,0.1,0l-0.1,0l-0.1,0l0,0c0,0,0.2,0,0.1,0l-0.2,0l-0.6,0c-0.8,0-1.7,0-2.6,0c-0.8,0-1.7,0-2.5,0
				c-0.9,0-1.7,0.1-2.6,0.1c-1,0-2,0.1-2.9,0c-1,0-2,0-2.9-0.1c-0.9,0-1.9,0-2.8,0c-0.5,0-1,0.1-1.4,0.1c-0.5,0-1.1,0.1-1.6,0.1
				c-1.1,0-2.2,0-3.3,0c-1.1,0-2-0.1-3.1-0.1c-2.1,0-4.3,0-6.5,0c-1.1,0-2.2,0-3.3,0c-1.1,0-2.3,0-3.5-0.1c-1.1-0.1-2.1-0.1-3.2-0.1
				c-1.1,0-2.1,0-3.4,0.1c-1.2,0-2.3,0-3.5,0l-1.7,0l-1.5,0c0.1-0.1,0,0,0,0c0,0,0,0,0,0c0,0,0-0.1,0-0.1c0,0,0,0.1,0,0.2l0,0.1
				c0-0.1,0,0.2,0-0.1l0,0.1l0,0.8l0,1.6c0,1.1,0,2.4,0,3.5c0,1.2-0.1,2.4-0.1,3.4l0,1.6c0,0.1,0,0.1,0,0.1c0,0,0,0,0,0c0,0,0,0,0,0
				c0,0,0,0,0,0c0,0,0.1,0.1,0.1,0.1c0,0,0,0,0,0c0.1,0-0.2,0-0.1,0l0.2,0c0.1,0-0.1,0-0.1,0l0.1,0l0.1,0l0.4,0c2.2,0,4.4,0,6.5,0.1
				c2.1,0,4.2,0,6.3,0c1,0,2.1,0,3.1,0c1,0,1.9,0,2.9-0.1c2.1,0,3.9,0,5.8,0c0.9,0,1.9,0,2.8,0c1,0,1.9,0.1,2.6,0.1
				c0.8,0,1.6,0,2.4,0c0.8,0,1.5-0.1,2.3-0.1c1.7-0.1,3.2,0,4.6,0c2.6,0.1,5.2,0,7.1,0C263.7,123.8,266,123.8,266,123.8z"/>
		</g>
		<g>
			<path fill="#CC6242" d="M140,84.5c0,0-0.2-0.4-0.4-1.2c-0.3-0.8-0.7-1.9-1.1-3.3c-0.4-1.4-0.9-3.2-1.4-5.3
				c-0.1-0.5-0.2-1.1-0.3-1.7c-0.1-0.5-0.2-1.1-0.2-1.7c-0.1-1.2-0.2-2.5-0.2-3.9c0.1-2.7,0.5-5.6,1.7-8.6c0.6-1.5,1.3-2.8,2.2-4.2
				c0.9-1.4,1.9-2.7,3.1-3.9c1.1-1.1,2.3-2.4,3.6-3.4c1.4-1.1,2.9-2,4.4-2.7c1.5-0.8,2.9-1.5,4.5-2.3c0.8-0.4,1.5-0.7,2.5-1l2.4-0.8
				l2.4-0.8c0.9-0.3,1.7-0.5,2.6-0.7c0.8-0.2,1.6-0.3,2.4-0.5c0.8-0.2,1.6-0.4,2.4-0.5c0.8-0.2,1.6-0.3,2.4-0.5l1.2-0.3l0.3-0.1
				l0.2,0l0.1,0l0.6-0.1c1.7-0.2,3.2-0.3,4.7-0.5c3.1-0.3,6.1-0.6,9-0.9c0.7-0.1,1.4-0.1,2.1-0.2c0.8,0,1.4,0,2.1,0
				c1.4,0,2.7,0,3.9-0.1c2.5,0,4.7,0,6.8,0c2,0,3.8-0.1,5.3-0.2c1.5-0.1,2.7-0.2,3.5-0.3c0.8-0.1,1.2-0.1,1.2-0.1
				c1.4-0.3,2.8,0.7,3,2.1c0.3,1.4-0.7,2.8-2.1,3c-0.5,0.1-0.9,0-1.3-0.1l0,0c0,0-0.4-0.1-1.2-0.4c-0.8-0.2-1.8-0.5-3.2-0.6
				c-0.4,0-0.7-0.1-1.1-0.1c-0.4,0-0.8-0.1-1.3-0.1c-0.9-0.1-1.8-0.1-2.8-0.1c-1.9-0.1-4.3,0-6.7,0c-1.2,0-2.5,0.1-3.8,0.1
				c-0.6,0-1.4,0-2,0.1c-0.7,0.1-1.4,0.1-2.1,0.2c-2.8,0.3-5.8,0.6-8.8,0.9c-1.6,0.2-3.2,0.3-4.7,0.6l-0.6,0.1l-0.1,0l0,0
				c0.1,0,0,0,0,0l-0.1,0l-0.3,0.1l-1.2,0.3c-0.8,0.2-1.6,0.4-2.4,0.5c-0.8,0.2-1.6,0.4-2.4,0.5c-0.8,0.2-1.6,0.3-2.4,0.5
				c-0.8,0.2-1.6,0.4-2.2,0.6l-2.3,0.8l-2.3,0.8c-0.6,0.2-1.4,0.6-2.1,0.9c-1.4,0.7-2.9,1.5-4.3,2.3c-1.4,0.8-2.7,1.5-3.8,2.5
				c-1.1,0.9-2.1,2-3.2,3.1c-1,1.1-1.8,2.2-2.5,3.4c-0.7,1.1-1.3,2.4-1.7,3.6c-0.9,2.4-1.1,4.9-1.1,7.1c0,1.1,0.1,2.2,0.3,3.2
				c0.1,0.5,0.2,1.1,0.3,1.6c0.1,0.5,0.2,1,0.3,1.4c0.4,1.8,1,3.5,1.5,4.8c0.5,1.3,0.9,2.3,1.2,3c0.3,0.7,0.5,1,0.5,1l0,0
				c0.6,1.3,0,2.7-1.3,3.3c-1.3,0.6-2.7,0-3.3-1.3C140,84.5,140,84.5,140,84.5z"/>
		</g>
		<g>
			<path fill="#CC6242" d="M135.6,86.6c0,0,0.3,0.2,1,0.4c0.6,0.3,1.5,0.7,2.5,1.1c1,0.4,2.3,1,3.6,1.5c0.7,0.3,1.3,0.5,2,0.8
				c0.3,0.1,0.2,0.1,0.4,0.1c0.1,0,0.2,0,0.4-0.1c0.2-0.1,0.4-0.3,0.5-0.5l0-0.1l0.1-0.3l0.2-0.5c0.1-0.4,0.2-0.7,0.3-1
				c0.4-1.4,0.8-2.6,1.1-3.7c0.6-2.2,0.8-3.7,0.8-3.7c0.2-1.4,1.5-2.3,2.9-2.1c1.4,0.2,2.3,1.5,2.1,2.9c0,0.2-0.1,0.5-0.2,0.7l0,0
				c0,0-0.7,1.4-1.5,3.5c-0.4,1-0.9,2.3-1.4,3.7c-0.1,0.3-0.2,0.7-0.3,1l-0.2,0.5l-0.1,0.3l-0.2,0.4c-0.5,1.2-1.4,2.1-2.6,2.6
				c-0.6,0.3-1.2,0.4-1.9,0.4c-0.6,0-1.4-0.1-1.8-0.3c-0.7-0.2-1.4-0.5-2.1-0.7c-1.3-0.5-2.6-0.9-3.7-1.2c-1.1-0.3-2-0.6-2.6-0.8
				c-0.6-0.2-1-0.3-1-0.3c-1.3-0.4-2.1-1.8-1.7-3.1c0.4-1.3,1.8-2.1,3.1-1.7C135.3,86.5,135.5,86.5,135.6,86.6z"/>
		</g>
		<g>
			<path fill="#CC6242" d="M214,44.3c0,0,0.3-0.2,0.8-0.7c0.5-0.4,1.2-1.1,2-1.9c0.8-0.8,1.7-1.8,2.6-2.8c0.5-0.5,1-1.1,1.5-1.6
				c0.2-0.2,0.1-0.1,0.2-0.3c0-0.1,0-0.2,0-0.3c0-0.2-0.1-0.3-0.2-0.4c-0.5-0.4-1-0.8-1.5-1.3c-1.1-0.9-2.1-1.7-3-2.5
				c-0.9-0.7-1.6-1.3-2.1-1.7c-0.5-0.4-0.8-0.6-0.8-0.6c-1.1-0.9-1.3-2.4-0.4-3.5s2.4-1.3,3.5-0.4c0,0,0.1,0.1,0.1,0.1
				c0,0,1.1,1,2.8,2.6c0.8,0.8,1.8,1.6,2.9,2.6c0.3,0.2,0.5,0.5,0.8,0.7l0.4,0.4l0.2,0.2l0.3,0.3c0.9,0.9,1.5,2.3,1.5,3.6
				c0,0.7-0.1,1.3-0.4,1.9c-0.2,0.6-0.7,1.3-1,1.6c-0.5,0.5-1,1.1-1.5,1.6c-1,1-1.9,2-2.6,2.9c-0.7,0.8-1.3,1.6-1.7,2.1
				c-0.4,0.5-0.6,0.8-0.6,0.8c-0.8,1.1-2.4,1.4-3.5,0.6s-1.4-2.4-0.6-3.5C213.6,44.7,213.8,44.5,214,44.3z"/>
		</g>
		<g>
			<path fill="#CC6242" d="M306.3,45c0,0,0,0.2,0,0.6c0,0.4,0,1.1-0.1,1.9c-0.1,1.7-0.4,4-1.2,7c-0.4,1.5-1,3.2-1.7,4.9
				c-0.7,1.7-1.7,3.5-2.9,5.3c-2.3,3.7-5.8,7.3-10.1,10.2c-2.2,1.5-4.7,2.7-7.3,3.7c-1.3,0.5-2.8,0.9-4.2,1.2
				c-1.4,0.3-2.8,0.5-4.3,0.7c-3,0.4-6.2,0.3-9.3-0.2c-1.5-0.2-3.1-0.6-4.7-1c-0.8-0.2-1.5-0.5-2.3-0.8l-0.6-0.2l-0.6-0.2
				c-0.4-0.2-0.8-0.3-1.1-0.5c-0.7-0.4-1.5-0.7-2.2-1.1c-0.7-0.4-1.4-0.8-2.1-1.2c-1.4-0.9-2.8-1.9-4.1-3c-1.2-1-2.5-2-3.7-3.3
				c-0.3-0.3-0.6-0.7-0.9-1c-0.2-0.3-0.6-0.7-0.8-1c-0.5-0.7-1-1.4-1.5-2.1c-0.5-0.7-0.9-1.4-1.3-2.2c-0.4-0.8-0.8-1.6-1.2-2.4
				c-0.7-1.6-1.3-3.1-1.8-4.8c-0.5-1.6-1-3.4-1.2-5.1c-0.2-1.8-0.3-3.5-0.3-5.2c0-3.4,0.5-7,1.6-10.3c0.5-1.6,1.1-3.2,1.8-4.8
				c0.7-1.6,1.6-3.1,2.5-4.6c0.9-1.4,2-2.8,3.1-4.1c1.2-1.3,2.4-2.4,3.6-3.5c1.3-1.1,2.6-2.1,4-3c1.4-0.9,2.9-1.7,4.4-2.3
				c1.5-0.6,3-1.2,4.5-1.6c1.5-0.5,3.1-0.8,4.7-1c1.5-0.2,3.1-0.4,4.7-0.5c1.6,0,3.1,0.1,4.6,0.3c1.5,0.2,2.9,0.4,4.3,0.7
				c1.4,0.3,2.9,0.7,4.2,1.2c1.3,0.5,2.6,1,3.8,1.7c0.6,0.3,1.2,0.6,1.8,1c0.6,0.4,1.2,0.7,1.7,1.1c1.1,0.8,2.1,1.6,3,2.3
				c1,0.8,1.9,1.6,2.7,2.5c1.7,1.7,3.1,3.5,4.3,5.2c1.2,1.8,2.1,3.5,2.9,5.2c0.4,0.8,0.8,1.7,1,2.5c0.3,0.9,0.5,1.6,0.7,2.4
				c0.4,1.5,0.6,2.8,0.8,3.9c0.2,1.2,0.3,2.2,0.4,3C306.3,44.1,306.3,45,306.3,45L306.3,45z M301.4,45c0,0,0-0.7-0.1-2.2
				c-0.1-0.7-0.1-1.6-0.3-2.6c-0.2-1-0.4-2.3-0.7-3.6c-0.1-0.6-0.3-1.3-0.5-2c-0.2-0.7-0.5-1.4-0.8-2.1c-0.7-1.4-1.5-3.1-2.5-4.6
				c-1-1.5-2.3-3.1-3.7-4.6c-0.7-0.8-1.5-1.5-2.3-2.2c-0.9-0.8-1.8-1.5-2.7-2.2c-0.4-0.3-0.9-0.7-1.4-0.9c-0.5-0.3-1-0.6-1.5-0.9
				c-1.1-0.6-2.2-1.1-3.3-1.5c-1.1-0.4-2.3-0.8-3.6-1c-1.3-0.3-2.6-0.5-3.9-0.7c-2.6-0.4-5.2-0.3-8,0.1c-1.4,0.2-2.7,0.5-4.1,0.9
				c-1.4,0.4-2.7,0.9-4.1,1.5c-1.3,0.6-2.6,1.2-3.8,2c-1.2,0.8-2.4,1.6-3.6,2.6c-2.3,1.9-4.4,4.1-6,6.6c-0.9,1.3-1.6,2.6-2.2,4
				c-0.6,1.4-1.2,2.9-1.6,4.4c-0.9,2.9-1.3,6-1.3,9.1c0,1.6,0.1,3.2,0.3,4.6c0.2,1.5,0.6,2.9,1.1,4.4c0.5,1.5,1.1,3,1.7,4.4
				c0.3,0.7,0.6,1.4,1,2c0.4,0.7,0.8,1.3,1.2,2c0.4,0.6,0.8,1.3,1.3,1.8c0.2,0.3,0.4,0.5,0.7,0.9c0.2,0.2,0.4,0.5,0.7,0.8
				c1,1,2.2,2,3.4,3c1.1,0.9,2.3,1.8,3.6,2.6c1.2,0.7,2.6,1.5,3.9,2.1c0.3,0.2,0.6,0.3,1,0.4l0.5,0.2l0.5,0.2c0.7,0.2,1.4,0.5,2,0.6
				c1.4,0.4,2.7,0.7,4.1,0.9c2.8,0.4,5.4,0.4,8,0c1.3-0.2,2.7-0.4,3.9-0.7c1.3-0.3,2.4-0.6,3.5-1c2.3-0.9,4.4-2,6.3-3.3
				c3.8-2.7,6.7-5.7,8.6-8.9c2-3.2,3.2-6.2,3.9-8.7c0.7-2.6,0.9-4.8,1.1-6.2c0.1-0.7,0.1-1.2,0.1-1.6
				C301.4,45.1,301.4,44.9,301.4,45L301.4,45z"/>
		</g>
		<g>
			<path fill="#CC6242" d="M285.4,40.6c0,0,0,0.1,0,0.2c0,0.1,0,0.5,0,0.8c0,0.7-0.1,1.7-0.5,3c-0.2,0.6-0.4,1.3-0.7,2
				c-0.3,0.8-0.7,1.5-1.2,2.3c-0.5,0.8-1.1,1.5-1.8,2.3c-0.7,0.7-1.5,1.5-2.4,2.1c-1.8,1.4-4.2,2.4-6.8,2.7c-1.3,0.2-2.7,0.2-4,0
				c-1.4-0.2-2.8-0.6-4-1.1c-2.7-1.1-5.1-3.1-6.8-5.6c-0.4-0.6-0.8-1.3-1.2-2l-0.2-0.5l-0.2-0.5c-0.2-0.4-0.3-0.8-0.4-1.2
				c-0.4-1.5-0.6-3-0.6-4.5c0-3.1,1-6.1,2.7-8.7c1.7-2.5,4.1-4.4,6.7-5.6c2.7-1.1,5.5-1.4,8-1c2.6,0.4,4.8,1.4,6.7,2.6
				c1.9,1.3,3.2,2.8,4.2,4.4c1,1.5,1.5,3,1.8,4.3c0.3,1.3,0.4,2.3,0.5,2.9C285.4,40.2,285.4,40.6,285.4,40.6L285.4,40.6z
				 M281.9,40.6c0,0,0-0.3,0-0.8c0-0.5-0.1-1.3-0.4-2.3c-0.3-0.9-0.7-2.1-1.5-3.2c-0.8-1.1-1.9-2.3-3.3-3.1
				c-1.4-0.9-3.2-1.5-5.1-1.7c-1.9-0.2-4,0.2-5.7,1c-1.8,0.9-3.5,2.3-4.5,4.1c-1.1,1.8-1.8,3.9-1.7,6c0,2.2,0.6,4.2,1.7,6
				c1.2,1.8,2.8,3.1,4.6,3.9c1.9,0.9,3.8,1.2,5.7,1.1c1.9-0.2,3.5-0.7,4.9-1.6c0.7-0.5,1.3-1,1.9-1.5c0.5-0.5,1-1.1,1.4-1.6
				c0.4-0.5,0.7-1.1,0.9-1.6c0.3-0.6,0.4-1.1,0.6-1.5c0.3-0.9,0.4-1.7,0.4-2.2c0-0.3,0-0.4,0-0.6C281.9,40.6,281.9,40.5,281.9,40.6
				L281.9,40.6z"/>
		</g>
		<g>
			<path fill="#CC6242" d="M270.4,75.9c0.5,0,1,0,1.5,0c0.5,0,1-0.1,1.5-0.1c0.5,0,1-0.1,1.5-0.2l1.5-0.2c1-0.2,1.9-0.4,2.8-0.6
				c0.9-0.3,1.8-0.6,2.7-0.9c1.8-0.7,3.6-1.6,5.2-2.6c0.4-0.3,0.8-0.5,1.2-0.8c0.4-0.3,0.8-0.5,1.1-0.8c0.8-0.6,1.5-1.2,2.2-1.9
				l-0.5,3c-0.5-0.9-1-1.8-1.6-2.6c-0.6-0.8-1.3-1.7-2-2.5c-1.4-1.5-3.1-2.9-4.9-4c-1.8-1.1-3.8-2-5.8-2.6c-1-0.3-2.1-0.5-3.2-0.8
				c-1.1-0.2-2.1-0.3-3.1-0.4c-1.1,0-2.2,0-3.2,0.1c-1.1,0.1-2.2,0.3-3.2,0.6c-1,0.3-2.1,0.6-3.1,1.1c-1,0.4-2,0.9-2.9,1.5
				c-1.8,1.1-3.5,2.6-4.9,4.2c-0.3,0.4-0.7,0.8-1,1.2c-0.3,0.4-0.6,0.8-0.8,1.3c-0.5,0.9-1.1,1.8-1.6,2.8l-0.5-3
				c0.7,0.7,1.5,1.3,2.2,1.9c0.4,0.3,0.8,0.6,1.1,0.8c0.4,0.3,0.8,0.5,1.2,0.8c0.8,0.5,1.7,1,2.5,1.4c0.9,0.4,1.8,0.9,2.6,1.2
				c0.4,0.2,0.9,0.4,1.3,0.5c0.4,0.2,0.9,0.3,1.3,0.4c0.9,0.2,1.8,0.4,2.8,0.6l1.5,0.2l1.5,0.2C268.5,75.8,269.5,75.9,270.4,75.9
				L270.4,75.9z M270.4,80.9c-1.2,0-2.3-0.1-3.4-0.2c-0.6-0.1-1.1-0.1-1.6-0.2l-1.6-0.2c-1.1-0.2-2.2-0.4-3.3-0.7
				c-0.6-0.2-1.1-0.3-1.7-0.5c-0.5-0.2-1.1-0.4-1.6-0.6c-1.1-0.4-2-0.9-3.1-1.4c-1-0.5-2-1.1-2.9-1.7c-0.5-0.3-0.9-0.6-1.4-1
				c-0.5-0.3-0.9-0.7-1.4-1c-0.9-0.7-1.7-1.5-2.5-2.2l-1.4-1.4l1-1.6c0.6-1.1,1.3-2.1,2.1-3.1c0.4-0.5,0.8-1,1.3-1.5
				c0.4-0.4,0.9-0.9,1.4-1.3c1-0.8,2-1.6,3-2.3c1-0.7,2-1.4,3.1-2c1.1-0.6,2.2-1.2,3.3-1.7c1.1-0.5,2.3-0.9,3.5-1.3
				c1.2-0.4,2.4-0.6,3.6-0.8c1.2-0.2,2.5-0.3,3.7-0.3c1.3,0,2.6,0.1,3.8,0.3c1.2,0.2,2.4,0.4,3.6,0.7c2.4,0.6,4.8,1.5,7,2.7
				c1.1,0.6,2.2,1.3,3.2,2.1c1,0.8,2,1.6,2.9,2.5c0.9,0.9,1.7,1.8,2.5,2.8c0.8,1,1.5,2.1,2.1,3.2l0.9,1.7l-1.4,1.4
				c-0.8,0.8-1.6,1.5-2.5,2.2c-0.4,0.4-0.9,0.7-1.4,1.1c-0.4,0.3-0.9,0.6-1.4,1c-1.9,1.2-3.9,2.2-6,3.1c-1.1,0.4-2.1,0.8-3.2,1.1
				c-1.1,0.3-2.3,0.5-3.3,0.7l-1.6,0.2c-0.6,0.1-1.1,0.1-1.7,0.2c-0.6,0.1-1.1,0.1-1.7,0.1C271.6,80.9,270.9,80.9,270.4,80.9
				L270.4,80.9z"/>
		</g>
		<g>
			<path fill="none" stroke="#CC6242" stroke-width="5" stroke-miterlimit="10" d="M270.4,87.6c-1.8,0-3.7,0.3-5.4,0
				c-1.8-0.2-3.5-1.2-5.2-1.6c-1.8-0.5-3.5-0.9-5.1-1.6c-1.7-0.7-3.6-0.9-5.2-1.7c-1.6-0.9-3.1-1.9-4.6-3c-1.5-1.1-2.9-2.2-4.2-3.5
				c-1.3-1.2-2.4-2.7-3.6-4.1c-1.1-1.4-2.2-2.9-3.2-4.4c-1-1.5-1.9-3.1-2.6-4.7c-0.2-0.3-0.2-0.8-0.6-0.8c-2.8,0-2.8-0.1-5.5-0.1
				c-2.8,0-2.8-0.1-5.5-0.1c-2.8,0-2.8,0-5.5,0c-2.8,0-2.8,0.3-5.5,0.3c-2.8,0-2.8,0.4-5.5,0.4c-2.8,0-2.8-0.5-5.5-0.5
				c-2.8,0-2.8,0-5.5,0c-2.8,0-2.8-0.1-5.5-0.1c-2.8,0-2.8-0.1-5.5-0.1c-2.8,0-2.8,0.5-5.5,0.5c-2.8,0-2.8-0.4-5.5-0.4
				c-2.8,0-2.8,0.3-5.5,0.3c-2.8,0-2.8-0.1-5.5-0.1c-2.8,0-2.8,0.3-5.5,0.3c-2.8,0-2.8-0.3-5.5-0.3c-2.8,0-2.8-0.3-5.5-0.3
				c-2.8,0-2.8,0.4-5.5,0.4c-2.8,0-2.8-0.3-5.5-0.3c-2.8,0-2.8,0.4-5.5,0.4c-2.8,0-2.8-0.4-5.5-0.4s-2.8,0.1-5.5,0.1
				c-2.8,0-2.8-0.1-5.5-0.1c-2.8,0-2.8,0-5.5,0c-2.8,0-2.8,0.1-5.5,0.1c-2.8,0-2.8,0.2-5.5,0.2c-2.8,0-2.8-0.3-5.5-0.3
				c-2.8,0-2.8-0.1-5.5-0.1c-2.4,0-3.2,3.1-1.1,4.3c1.6,1,2.8,2.6,4.2,3.8c1.4,1.2,2.6,2.6,3.9,4c1.2,1.4,2.6,2.6,3.6,4.3
				c0.9,1.6,1.4,3.4,2.1,5.2c0.7,1.7,1.3,3.4,1.7,5.3c0.4,1.8,0.6,3.6,0.8,5.5c0.2,1.8,0.6,3.7,0.5,5.6c-0.1,1.7-0.7,3.3-1.1,5.1
				c-0.3,1.6-0.3,3.4-0.9,5.1c-0.6,1.5-1.8,2.9-2.7,4.5c-0.7,1.5-1.5,3-2.4,4.6c-0.9,1.4-1.3,3.2-2.3,4.7c-0.9,1.4-2.5,2.4-3.6,3.8
				c-1,1.3-1.5,3.1-2.7,4.5c-1.3,1.6-0.4,3.9,1.6,3.9c2.8,0,2.8-0.3,5.5-0.3c2.8,0,2.8,0.3,5.5,0.3c2.8,0,2.8-0.4,5.5-0.4
				c2.8,0,2.8,0.5,5.5,0.5c2.8,0,2.8-0.4,5.5-0.4c2.8,0,2.8,0.3,5.5,0.3c2.8,0,2.8-0.3,5.5-0.3c2.8,0,2.8,0.2,5.5,0.2
				c2.8,0,2.8-0.1,5.5-0.1c2.8,0,2.8,0.3,5.5,0.3c2.8,0,2.8-0.3,5.5-0.3c2.8,0,2.8,0.1,5.5,0.1c2.8,0,2.8,0.2,5.5,0.2
				c2.8,0,2.8-0.1,5.5-0.1c2.8,0,2.8-0.2,5.5-0.2c2.8,0,2.8,0.1,5.5,0.1c2.8,0,2.8,0,5.5,0c2.8,0,2.8,0.5,5.5,0.5c2.8,0,2.8,0,5.5,0
				c2.8,0,2.8,0,5.5,0c2.8,0,2.8-0.6,5.5-0.6c2.8,0,2.8,0.3,5.5,0.3c2.8,0,2.8-0.3,5.5-0.3c2.8,0,2.8,0.5,5.5,0.5c2.8,0,2.8,0,5.5,0
				c2.8,0,2.8-0.1,5.5-0.1c2.8,0,2.8,0.3,5.5,0.3c2.8,0,2.8-0.3,5.5-0.3c2.8,0,2.8-0.1,5.5-0.1c2.8,0,2.8,0,5.5,0
				c2.8,0,2.8,0.4,5.5,0.4c2.8,0,2.8,0,5.5,0c2.8,0,2.8,0.1,5.5,0.1c2.8,0,2.8-0.2,5.5-0.2c2.8,0,2.8-0.3,5.5-0.3
				c1.3,0,2.4-1,2.4-2.3c0-2.9-0.2-2.9-0.2-5.8c0-2.9,0.1-2.9,0.1-5.8c0-2.9,0.6-2.9,0.6-5.8c0-2.9,0-2.9,0-5.8
				c0-2.9-0.2-2.9-0.2-5.8c0-2.9-0.2-2.9-0.2-5.8c0-2.9,0.3-2.9,0.3-5.8s-0.5-2.9-0.5-5.8c0-0.6-0.3-1-0.8-0.9
				C275.8,87.4,273.1,87.6,270.4,87.6z"/>
		</g>
		<g>
			
				<path fill="none" stroke="#CC6242" stroke-width="5" stroke-linecap="round" stroke-miterlimit="10" stroke-dasharray="10.0044,8.0035" d="
				M175,144.9c-2.8,0-2.8,0.2-5.7,0.2c-2.8,0-2.8,0.1-5.7,0.1c-2.8,0-2.8,0.1-5.7,0.1c-2.8,0-2.8-0.3-5.7-0.3c-2.8,0-2.8,0-5.7,0
				c-2.8,0-2.8-0.1-5.7-0.1c-2.8,0-2.8,0.2-5.7,0.2c-2.8,0-2.8,0.2-5.7,0.2c-2.8,0-2.8,0.1-5.7,0.1c-2.8,0-2.8-0.3-5.7-0.3
				c-2.8,0-2.8,0-5.7,0c-2.8,0-2.8,0.3-5.7,0.3c-2.8,0-2.8-0.4-5.7-0.4c-2.8,0-2.8,0.2-5.7,0.2c-2.8,0-2.8-0.2-5.7-0.2
				c-2.8,0-2.8,0-5.7,0s-2.8,0.1-5.7,0.1c-1.4,0-2.4,1.3-2.3,2.8c0.1,1.5,0.1,3.2,0.1,4.8c0,1.7,0.1,3.4-0.1,4.8
				c-0.3,1.9-1.1,3.6-2.2,4.3c-1.4,0.8-3,1.6-4.6,2.2c-1.6,0.6-3.3,1-4.9,1.4c-1.7,0.3-3.4,0.4-5.1,0.6c-1.8,0.2-3.5,0.1-5.1,0.1
				c-1.2,0-2.2,1-2.2,2.2c0,2.7-0.1,2.7-0.1,5.4c0,2.7,0.3,2.7,0.3,5.4s-0.2,2.7-0.2,5.4c0,2.7-0.1,2.7-0.1,5.4
				c0,2.7,0.3,2.7,0.3,5.4c0,2.7-0.1,2.7-0.1,5.4c0,2.7-0.2,2.7-0.2,5.4s0,2.7,0,5.4c0,1.3,1.2,2.5,2.5,2.5c2.7,0,2.7,0.1,5.5,0.1
				c2.7,0,2.7-0.3,5.5-0.3c2.7,0,2.7,0.1,5.5,0.1c2.7,0,2.7,0,5.5,0c2.7,0,2.7,0.1,5.5,0.1c2.7,0,2.7-0.3,5.5-0.3
				c2.7,0,2.7,0.4,5.5,0.4c2.7,0,2.7-0.1,5.5-0.1c2.7,0,2.7,0.1,5.5,0.1c2.7,0,2.7-0.2,5.5-0.2c2.7,0,2.7,0.3,5.5,0.3
				c2.7,0,2.7,0,5.5,0c2.7,0,2.7-0.3,5.5-0.3c2.7,0,2.7,0.3,5.5,0.3c2.7,0,2.7-0.3,5.5-0.3s2.7,0.1,5.5,0.1c2.7,0,2.7-0.2,5.5-0.2
				c2.7,0,2.7,0.4,5.5,0.4c2.7,0,2.7-0.3,5.5-0.3c2.7,0,2.7,0.1,5.5,0.1c2.7,0,2.7,0,5.5,0s2.7,0,5.5,0c1.3,0,2.2-1.1,2.2-2.4
				c0-2.9,0.4-2.9,0.4-5.8c0-2.9-0.1-2.9-0.1-5.8c0-2.9-0.4-2.9-0.4-5.8c0-2.9,0-2.9,0-5.8s0-2.9,0-5.8c0-2.9,0.1-2.9,0.1-5.8
				c0-2.9,0-2.9,0-5.8c0-2.9,0-2.9,0-5.8c0-2.9,0.2-2.9,0.2-5.8c0-2.9,0.1-2.9,0.1-5.8s0.1-2.9,0.1-5.8
				C177.6,146.2,176.3,144.9,175,144.9z"/>
		</g>
		<g>
			<path fill="#CC6242" d="M353.9,140.3c0,0-0.7,0-1.9,0c-0.7,0-1.5,0-2.4,0.1c-1,0-2,0-3.3,0c-1.2,0-2.6,0-4,0
				c-0.8,0-1.6,0-2.4-0.1c-0.8,0-1.5-0.1-2.4-0.1c-0.8,0-1.7,0-2.5,0.1c-0.8,0-1.9,0.1-2.9,0.1c-1.9,0-3.9,0-6,0c-2.1,0-4.3,0-6.5,0
				c-1.2,0-2.5-0.1-3.5-0.2c-1,0-2.2,0-3.4,0c-1.2,0-2.4,0-3.6,0c-1.2,0-2.3,0-3.6,0.1c-1.3,0-2.6,0-4,0c-1.4-0.1-2.5-0.1-3.8-0.1
				c-0.1,0,0.2,0,0.1,0l-0.1,0c0,0,0,0,0.1,0c0,0,0.1,0,0.1,0c0.1,0,0.2,0,0.3-0.1c0.1-0.1,0.2-0.1,0.3-0.2c0.1-0.1,0.3-0.3,0.3-0.7
				c0,0,0-0.1,0-0.2c0,0,0,0.1,0,0.1l0,0.2l0,0.5l0,1c0,1.3,0,2.6,0,4c0,0.6,0,1.3,0.1,1.9c0,0.7,0,1.4,0,2.1c0,1.4-0.1,2.9-0.3,4.4
				c-0.2,1.5-0.6,3-1.2,4.5c-0.6,1.5-1.4,2.9-2.6,4.2c-0.6,0.6-1.2,1.2-1.8,1.7c-0.3,0.3-0.7,0.5-1,0.7l-0.3,0.2l-0.1,0.1
				c-0.1,0,0.3-0.2,0.1-0.1l-0.1,0c0,0-0.1,0,0,0c0,0,0.1-0.1,0.1-0.1c0.1-0.1,0.2-0.2,0.2-0.2c0.1-0.1,0.2-0.2,0.2-0.4
				c0.2-0.5,0.1-1.1-0.3-1.5c-0.2-0.2-0.5-0.4-0.8-0.4c-0.1,0-0.1,0-0.2,0c0,0-0.1,0-0.1,0l0.1,0l0.3,0l2.1,0c2.8,0,5.6,0,8.3,0.1
				c1.4,0,2.7,0,4.1,0c1.4,0,2.8,0,4.2,0c2.7,0,5.5,0,8.1,0c1.3,0,2.6,0,3.9,0c1.3,0,2.7,0,4,0c1.3,0,2.6,0,3.9,0c0.6,0,1.3,0,1.9,0
				c0.7,0,1.3,0,2,0c1.3,0.1,2.4,0.1,3.6,0.1c1.2,0,2.4,0,3.6,0c1.1,0,2.4,0,3.4,0c0.5,0,0.8-0.1,1.1-0.2c0.4-0.1,0.9-0.3,1.4-0.5
				c0.5-0.2,1-0.4,1.5-0.6c0.4-0.2,0.8-0.4,1.2-0.6c0.8-0.5,1.5-1,2.2-1.6c1.3-1.2,2.3-2.6,2.9-4c0.3-0.7,0.5-1.4,0.7-2.2
				c0.1-0.7,0.2-1.5,0.3-2.3c0.1-1.5,0-3.1,0-4.5c0-1.5,0-2.8,0-4c0-0.6,0-1.2,0-1.7c0-0.3,0-0.5,0-0.8l0-0.2l0-0.1l0,0
				c0-0.1,0,0.1,0,0.1l0,0l0-0.1c0,0,0,0.1,0,0.1c0,0.1,0,0.1,0,0.2c0.1,0.3,0.4,0.7,0.9,0.8c0.2,0.1,0.6,0,0.3,0
				c-0.2,0-0.3,0.1-0.5,0.1c-0.3,0.1-0.7,0.1-1.1,0.1c-0.4,0-0.6,0-0.8,0C354.1,140.3,353.9,140.3,353.9,140.3L353.9,140.3z
				 M353.9,135.5c0,0,0.2,0,0.5,0c0.1,0,0.3,0,0.5,0c0.1,0,0.3,0,0.7-0.1c0.2,0,0.3-0.1,0.5-0.1c0,0,0.8-0.1,1.4,0
				c0.6,0.1,1.3,0.5,1.7,0.9c0.5,0.5,0.8,1,1,1.6c0,0.2,0.1,0.3,0.1,0.5l0,0.3l0,0.1c0,0.2,0,0.3,0,0.5c0,0.2,0,0.5,0,0.8
				c0,0.5,0,1.1,0,1.7c0,1.2,0,2.6,0,4c0,1.5,0.1,3.1-0.1,4.9c-0.1,0.9-0.2,1.9-0.4,2.9c-0.2,1-0.5,2.1-1,3.1
				c-0.9,2.1-2.3,3.9-4.1,5.5c-0.9,0.8-1.9,1.5-3,2.1c-0.5,0.3-1.1,0.6-1.7,0.8c-0.5,0.2-1,0.4-1.6,0.6c-0.5,0.2-1.1,0.4-1.8,0.7
				c-0.7,0.2-1.6,0.4-2.3,0.4c-1.3,0-2.4,0-3.7,0c-1.2,0-2.4,0-3.6,0c-1.2,0-2.6,0-3.8-0.1c-0.6,0-1.2,0-1.8-0.1c-0.6,0-1.3,0-1.9,0
				c-1.3,0-2.6,0-3.9,0c-1.3,0-2.6,0-3.9,0c-1.4,0-2.7,0-4,0c-2.7,0-5.3,0-8.1,0c-1.4,0-2.7,0-4,0c-1.4,0.1-2.8,0.1-4.2,0.1
				c-2.8,0-5.5,0-8.3,0l-2.1,0l-0.3,0l-0.3,0c-0.1,0-0.3,0-0.4,0c-0.6-0.1-1.2-0.4-1.7-0.9c-0.9-0.9-1.2-2.2-0.8-3.4
				c0.1-0.3,0.3-0.6,0.4-0.8c0.1-0.1,0.2-0.3,0.4-0.4c0.1-0.1,0.1-0.1,0.2-0.2l0.1-0.1l0.1,0l0.2-0.1l0.1-0.1l0.2-0.1
				c0.2-0.2,0.5-0.3,0.7-0.5c0.4-0.3,0.8-0.7,1.2-1.1c1.4-1.6,2.2-3.9,2.6-6.3c0.2-1.2,0.2-2.4,0.2-3.7c0-0.7,0-1.3-0.1-1.9
				c0-0.7-0.1-1.4-0.1-2.1c0-1.3,0-2.7,0-4l0-1l0-0.5l0-0.2l0-0.2c0-0.1,0-0.3,0-0.4c0.1-1,0.6-1.8,1.2-2.3c0.3-0.3,0.7-0.5,1.1-0.7
				c0.2-0.1,0.4-0.2,0.7-0.2l0.3,0l0.2,0l0.3,0c1.3,0,2.8,0.1,3.9,0.1c1.2,0,2.5,0,3.6,0c1.2-0.1,2.6-0.1,3.8-0.1c1.2,0,2.4,0,3.6,0
				c1.2,0,2.3,0,3.6,0c1.3,0.1,2.3,0.2,3.3,0.2c2.2,0,4.4,0,6.5,0c2.1,0,4.1,0,5.9,0c0.9,0,1.7-0.1,2.7-0.1c1,0,1.9,0,2.7,0
				c0.9,0,1.8,0,2.5,0.1c0.8,0,1.5,0.1,2.2,0.1c1.5,0,2.8,0,4,0c1.2,0,2.3,0,3.2,0c0.9,0,1.7,0,2.4-0.1
				C353.2,135.5,353.9,135.5,353.9,135.5L353.9,135.5z"/>
		</g>
		<g>
			<path fill="none" stroke="#CC6242" stroke-width="5" stroke-miterlimit="10" d="M353.9,173.2c-2.8,0-2.8-0.2-5.6-0.2
				c-2.8,0-2.8,0.1-5.6,0.1c-2.8,0-2.8-0.1-5.6-0.1c-2.8,0-2.8,0.1-5.6,0.1c-2.8,0-2.8,0-5.6,0c-2.8,0-2.8-0.1-5.6-0.1
				c-2.8,0-2.8,0-5.6,0c-2.8,0-2.8,0.1-5.6,0.1c-2.8,0-2.8,0-5.6,0s-2.8-0.1-5.6-0.1c-0.7,0-1.3,0.6-1.3,1.2c0,2.6,0,2.6,0,5.1
				c0,2.6,0.1,2.6,0.1,5.1c0,1.9-0.2,3.6-0.5,5.1c-0.4,1.9-1.1,3.5-1.9,4.8c-1.1,1.6-2.5,2.7-3.8,3.4c-0.8,0.5-0.4,1.7,0.5,1.7
				c2.9,0,2.9,0.2,5.8,0.2c2.9,0,2.9-0.2,5.8-0.2c2.9,0,2.9,0.2,5.8,0.2c2.9,0,2.9-0.1,5.8-0.1c2.9,0,2.9,0,5.8,0c2.9,0,2.9,0,5.8,0
				c2.9,0,2.9,0.1,5.8,0.1c2.9,0,2.9,0.1,5.8,0.1c2.9,0,2.9,0.1,5.8,0.1c3.1,0,2.8-0.2,6-1.4c1.7-0.7,3.6-1.7,5.2-3.3
				c1.3-1.3,2.5-3,3.3-5.2c0.6-1.7,0.8-3.8,0.8-6.2c0-2.4,0-2.4,0-4.8c0-2.4,0.1-2.4,0.1-4.8c0-0.8-0.8-1.3-1.5-1.2
				C355,173.2,355.3,173.2,353.9,173.2z"/>
		</g>
		<g>
			<path fill="none" stroke="#CC6242" stroke-width="5" stroke-miterlimit="10" d="M330,78.4c0,2-1.6,3.5-3.5,3.5
				c-2,0-3.6-1.6-3.6-3.5s1.6-3.6,3.6-3.6C328.4,74.8,330,76.4,330,78.4z"/>
		</g>
		<g>
			<path fill="#CC6242" d="M307.8,90.8c0,0,0.1,0,0.4,0c0.3,0,0.6,0.1,1.1,0.1c0.5,0,1.1,0.1,1.8,0.1c0.7,0,1.5,0.1,2.4,0.1
				c1.8,0.1,3.8,0.2,5.9,0.3c1.1,0,2.2,0,3.3,0c1.2,0,2.3,0,3.5,0c1.1,0,2.2,0,3.4,0c1.1,0,2.3,0,3.3,0c2.1-0.1,4.2-0.1,5.9-0.2
				c1.7-0.1,3.2-0.2,4.2-0.3c1-0.1,1.6-0.1,1.6-0.1c1.4-0.1,2.6,0.9,2.7,2.3c0.1,1.4-0.9,2.6-2.3,2.7c-0.1,0-0.3,0-0.4,0
				c0,0-0.6-0.1-1.6-0.1c-1-0.1-2.4-0.2-4.2-0.3c-1.8-0.1-3.7-0.2-5.9-0.2c-1.1,0-2.2-0.1-3.3-0.1c-1.1,0-2.3,0-3.5-0.1
				c-1.1-0.1-2.3-0.1-3.4,0c-1.1,0-2.2,0.1-3.3,0.1c-2.2,0.1-4.2,0.1-5.9,0.2c-0.9,0-1.6,0.1-2.3,0.2c-0.7,0.1-1.3,0.2-1.8,0.2
				c-1,0.1-1.6,0.2-1.6,0.2c-1.4,0.2-2.6-0.8-2.8-2.2c-0.2-1.4,0.8-2.6,2.2-2.8C307.4,90.8,307.6,90.8,307.8,90.8z"/>
		</g>
		<g>
			<path fill="none" stroke="#CC6242" stroke-width="5" stroke-linecap="round" stroke-linejoin="bevel" stroke-miterlimit="10" d="
				M307.8,102.7c2.7,0,2.7,0,5.5,0c2.7,0,2.7,0,5.4,0c2.7,0,2.7-0.1,5.5-0.1c2.7,0,2.7,0,5.5,0c2.7,0,2.7,0.1,5.5,0.1"/>
		</g>
		<g>
			<path fill="#CC6242" d="M307.8,109.7c0,0,0.6,0,1.6-0.1c1,0,2.5-0.1,4.2-0.2c0.9,0,1.8-0.1,2.8-0.1c1,0,2.1-0.1,3.2-0.1
				c1.1,0,2.2-0.1,3.3-0.1c1.1,0,2.3,0,3.4,0c1.2,0,2.3,0,3.5,0c1.2,0,2.3,0.1,3.3,0.1c1.1,0,2.1,0,3.1,0.1c1,0,1.9,0.1,2.8,0.1
				c1.7,0,3.2,0.2,4.2,0.2c1,0.1,1.6,0.1,1.6,0.1c1.4,0.1,2.4,1.3,2.3,2.7c-0.1,1.3-1.1,2.2-2.3,2.3c0,0-0.6,0-1.6,0.1
				c-1,0-2.5,0.2-4.2,0.2c-0.9,0-1.8,0-2.8,0.1c-1,0-2,0.1-3.1,0.1c-2.2,0-4.5,0-6.8,0c-2.3,0-4.6,0-6.8,0c-2.2,0-4.2-0.1-5.9-0.1
				c-1.7-0.1-3.2-0.2-4.2-0.2c-1-0.1-1.6-0.1-1.6-0.1l0,0c-1.4-0.1-2.4-1.3-2.3-2.7C305.5,110.7,306.5,109.7,307.8,109.7z"/>
		</g>
		<g>
			<path fill="none" stroke="#CC6242" stroke-width="5" stroke-miterlimit="10" d="M305.8,68.5c-1.2,1.9-2.6,3.6-4.1,5.2
				c-1.5,1.6-3.3,3.1-5,4.5c-0.7,2.5,0.2,2.6,0.2,5.2c0,2.6,0.1,2.6,0.1,5.2c0,2.6-0.1,2.6-0.1,5.2c0,2.6,0.1,2.6,0.1,5.2
				c0,2.6-0.2,2.6-0.2,5.2c0,2.6,0.2,2.6,0.2,5.2c0,2.6-0.2,2.6-0.2,5.2c0,1.9-0.1,3.6-0.5,5.1c-0.4,1.9-1.1,3.5-1.9,4.7
				c-1.1,1.6-2.4,2.9-3.6,3.6c-0.8,0.5-0.5,1.6,0.4,1.6c2.9,0,2.9-0.1,5.8-0.1c2.9,0,2.9,0.2,5.8,0.2s2.9-0.2,5.8-0.2
				c2.9,0,2.9,0.2,5.8,0.2c2.9,0,2.9-0.2,5.8-0.2c2.9,0,2.9,0.1,5.8,0.1c2.9,0,2.9,0,5.8,0c2.9,0,2.9-0.1,5.8-0.1
				c2.9,0,2.9-0.1,5.8-0.1c3.1,0,2.8,0,6-1.2c1.7-0.7,3.6-1.7,5.2-3.3c1.3-1.3,2.5-3,3.3-5.2c0.6-1.7,0.9-3.8,0.9-6.2
				c0-2.8,0.1-2.8,0.1-5.6c0-2.8-0.1-2.8-0.1-5.6c0-2.8-0.1-2.8-0.1-5.6c0-2.8-0.1-2.8-0.1-5.6c0-2.8,0.2-2.8,0.2-5.6
				c0-2.8,0.1-2.8,0.1-5.6c0-2.8-0.2-2.8-0.2-5.6s2.2-3.7,0.1-5.6c-2.1-2-2.9-0.1-5.8-0.1c-2.9,0-2.9,0-5.8,0
				c-2.9,0-2.9-0.1-5.8-0.1c-2.9,0-2.9,0-5.8,0c-2.9,0-2.9,0.1-5.8,0.1c-2.9,0-2.9,0.1-5.8,0.1c-2.9,0-2.9,0-5.8,0
				c-2.9,0-2.9,0.2-5.8-0.1C308.7,68.3,308.7,67.8,305.8,68.5z"/>
		</g>
		<g>
			<path fill="#CC6242" d="M105.7,107.3c0,0,0.3,0,1,0c0.6,0,1.6,0.1,2.8,0.1c1.2,0.1,2.6,0.1,4.3,0.1c0.9,0,1.8,0,2.7,0
				c1,0,1.9,0,2.9,0c1,0,2.2,0,3.3,0c1.1,0,2.2,0,3.4,0c2.4,0,4.9,0.1,7.5,0.1c1.3,0,2.7,0.1,3.9,0.1c1.3,0,2.6,0,4,0
				c2.7,0,5.5,0.1,8.2,0.1c2.8,0,5.5,0.1,8.2,0.1c2.6,0.1,5.3,0,7.9,0c2.6,0,5.1,0,7.4,0c2.4,0,4.6-0.1,6.7-0.1
				c2.1-0.1,4-0.1,5.7-0.1c1.6,0,3.1-0.2,4.4-0.2c1.3,0,2.1-0.1,2.8-0.2c0.6-0.1,0.9-0.1,0.9-0.1l0,0c1.4-0.2,2.6,0.8,2.8,2.2
				c0.2,1.4-0.8,2.6-2.2,2.8c-0.2,0-0.4,0-0.6,0c0,0-1.4-0.2-3.8-0.5c-1.1-0.1-2.6-0.2-4.3-0.3c-1.6-0.1-3.5-0.2-5.6-0.2
				c-1,0-2.1,0-3.2,0c-1.1,0-2.2,0-3.4,0.1c-2.4,0-4.9,0.1-7.5,0.1c-2.5,0-5.2,0.1-8,0c-2.7,0-5.4,0-8.2-0.1c-2.8,0-5.5,0-8.2,0
				c-1.4,0-2.7,0-4.1,0.1c-1.4,0-2.6-0.1-3.9,0c-2.6,0-5.1,0-7.4,0.1c-2.4,0.1-4.6,0.2-6.6,0.2c-1,0.1-2.1,0.1-3,0.1
				c-0.9,0-1.8,0.1-2.6,0.1c-1.7,0.1-3.2,0.1-4.4,0.1c-1.2,0-2.1,0-2.8,0c-0.6,0-1,0-1,0l0,0c-1.4,0-2.5-1.1-2.6-2.4
				s1.1-2.5,2.4-2.6C105.6,107.3,105.7,107.3,105.7,107.3z"/>
		</g>
		<g>
			<path fill="none" stroke="#CC6242" stroke-width="5" stroke-linecap="round" stroke-linejoin="bevel" stroke-miterlimit="10" d="
				M105.7,118.8c2.6,0,2.6,0.1,5.3,0.1c2.6,0,2.6,0,5.3,0c2.6,0,2.6,0,5.3,0c2.6,0,2.6,0,5.3,0c2.6,0,2.6-0.1,5.3-0.1
				c2.6,0,2.6,0,5.3,0c2.6,0,2.6,0,5.3,0"/>
		</g>
		<g>
			<path fill="none" stroke="#CC6242" stroke-width="5" stroke-linecap="round" stroke-linejoin="bevel" stroke-miterlimit="10" d="
				M170.2,74.3c2.8,0,2.8,0.2,5.6,0.2c2.8,0,2.8-0.1,5.6-0.1c2.8,0,2.8-0.1,5.6-0.1c2.8,0,2.8,0,5.6,0c2.8,0,2.8,0.1,5.6,0.1
				c2.8,0,2.8-0.2,5.6-0.2c2.8,0,2.8,0.1,5.6,0.1c2.8,0,2.8-0.1,5.6-0.1c2.8,0,2.8,0.1,5.6,0.1"/>
		</g>
	</g>
</g>
</svg>
